<svg xmlns="http://www.w3.org/2000/svg" width="62" height="61"><rect id="backgroundrect" width="100%" height="100%" x="0" y="0" fill="none" stroke="none" class=""/><defs><style>.cls-1{fill:#1a237e;}.cls-2{fill:#2b3489;}.cls-3{fill:#cfd1e3;}.cls-4{fill:#cfd1e4;}.cls-5{fill:#e4e5f0;}.cls-6{fill:#e4e6ef;}.cls-7{fill:#e4e6f0;}.cls-8{fill:#e4e5ef;}.cls-9{fill:#232c84;}.cls-10,.cls-16,.cls-17{fill:none;}.cls-10,.cls-12,.cls-16,.cls-17{stroke:#fff;stroke-miterlimit:10;}.cls-10{stroke-width:0.5px;}.cls-11,.cls-12,.cls-15{fill:#fff;}.cls-12{font-size:4.03px;font-family:Roboto-Thin, Roboto;}.cls-12,.cls-16{stroke-width:0.25px;}.cls-13{letter-spacing:-0.05em;}.cls-14{letter-spacing:0em;}.cls-15{font-size:3.02px;font-family:BradleyHandITC, Bradley Hand ITC;}.cls-17{stroke-width:0.2px;}</style></defs><title>Artboard 1</title><g class="currentLayer"><title>Layer 1</title><g id="Layer_1" data-name="Layer 1" class=""><path class="cls-1" d="M61.68000000000001,30.74000108242035 q0,14.94 0,29.88 c0,0.7200000000000002 -0.14,0.8600000000000002 -0.8600000000000002,0.8600000000000002 q-29.88,0 -59.76,0 c-0.7200000000000002,0 -0.8600000000000002,-0.14 -0.8600000000000002,-0.8600000000000002 q0,-29.88 0,-59.76 c0,-0.7200000000000002 0.14,-0.8600000000000002 0.8600000000000002,-0.8600000000000002 q29.88,0 59.76,0 c0.7200000000000002,0 0.8600000000000002,0.14 0.8600000000000002,0.8600000000000002 Q61.66,15.74000108242035 61.68000000000001,30.74000108242035 z" id="svg_1"/><path class="cls-2" d="M15.060000000000002,29.070001082420347 c-0.5700000000000002,-0.7000000000000002 -1.54,-0.8600000000000002 -1.17,-1.84 a0.7100000000000002,0.7100000000000002 0 0 1 1,-0.45 C16,27.330001082420353 15.120000000000005,28.120001082420345 15.060000000000002,29.070001082420347 z" id="svg_2"/><path class="cls-3" d="M33.870000000000005,10.180001082420347 a0.5800000000000002,0.5800000000000002 0 0 1 0.5700000000000002,0.6400000000000002 a0.6000000000000002,0.6000000000000002 0 0 1 -1.19,-0.08000000000000003 A0.5700000000000002,0.5700000000000002 0 0 1 33.870000000000005,10.180001082420347 z" id="svg_3"/><path class="cls-4" d="M25.47,12.570001082420347 a0.5800000000000002,0.5800000000000002 0 0 1 0.5700000000000002,0.6400000000000002 a0.6000000000000002,0.6000000000000002 0 0 1 -1.19,-0.08000000000000003 A0.5700000000000002,0.5700000000000002 0 0 1 25.47,12.570001082420347 z" id="svg_4"/><path class="cls-5" d="M47.620000000000005,22.80000108242035 a0.55,0.55 0 0 1 -0.6200000000000002,0.54 a0.51,0.51 0 0 1 -0.52,-0.52 a0.52,0.52 0 0 1 0.55,-0.6100000000000002 C47.400000000000006,22.210001082420348 47.59,22.430001082420347 47.620000000000005,22.80000108242035 z" id="svg_5"/><path class="cls-6" d="M19.42,11.350001082420349 a0.55,0.55 0 0 1 -0.54,-0.6400000000000002 a0.51,0.51 0 0 1 0.5700000000000002,-0.4900000000000001 a0.53,0.53 0 0 1 0.55,0.6300000000000002 A0.54,0.54 0 0 1 19.42,11.350001082420349 z" id="svg_6"/><path class="cls-7" d="M22.409999999999997,10.800001082420351 a0.54,0.54 0 0 1 -0.6400000000000002,0.54 a0.51,0.51 0 0 1 -0.4900000000000001,-0.56 a0.53,0.53 0 0 1 0.6300000000000002,-0.55 A0.54,0.54 0 0 1 22.409999999999997,10.800001082420351 z" id="svg_7"/><path class="cls-7" d="M24.810000000000002,10.74000108242035 a0.54,0.54 0 0 1 -0.4700000000000001,0.6000000000000002 a0.53,0.53 0 0 1 -0.6600000000000003,-0.52 a0.51,0.51 0 0 1 0.4700000000000001,-0.5900000000000002 A0.55,0.55 0 0 1 24.810000000000002,10.74000108242035 z" id="svg_8"/><path class="cls-5" d="M26.58,10.210001082420348 a0.55,0.55 0 0 1 0.6100000000000002,0.46 a0.53,0.53 0 0 1 -0.5,0.6700000000000004 a0.52,0.52 0 0 1 -0.6100000000000002,-0.45 A0.55,0.55 0 0 1 26.58,10.210001082420348 z" id="svg_9"/><path class="cls-8" d="M29,11.360001082420354 c-0.4200000000000001,-0.08000000000000003 -0.6200000000000002,-0.3000000000000001 -0.56,-0.6700000000000004 a0.52,0.52 0 0 1 0.5900000000000002,-0.4700000000000001 a0.54,0.54 0 0 1 0.52,0.6600000000000003 A0.55,0.55 0 0 1 29,11.360001082420354 z" id="svg_10"/><path class="cls-5" d="M31.379999999999995,10.210001082420348 a0.55,0.55 0 0 1 0.6100000000000002,0.46 a0.53,0.53 0 0 1 -0.5,0.6700000000000004 a0.52,0.52 0 0 1 -0.6000000000000002,-0.45 A0.55,0.55 0 0 1 31.379999999999995,10.210001082420348 z" id="svg_11"/><path class="cls-5" d="M36.81,10.74000108242035 a0.54,0.54 0 0 1 -0.4700000000000001,0.6000000000000002 a0.53,0.53 0 0 1 -0.6500000000000002,-0.52 a0.51,0.51 0 0 1 0.46,-0.5900000000000002 A0.55,0.55 0 0 1 36.81,10.74000108242035 z" id="svg_12"/><path class="cls-6" d="M39.21000000000001,10.74000108242035 a0.54,0.54 0 0 1 -0.5,0.5700000000000002 a0.53,0.53 0 0 1 -0.6300000000000002,-0.55 a0.51,0.51 0 0 1 0.4900000000000001,-0.5700000000000002 A0.55,0.55 0 0 1 39.21000000000001,10.74000108242035 z" id="svg_13"/><path class="cls-5" d="M41,10.210001082420348 a0.55,0.55 0 0 1 0.6100000000000002,0.46 a0.53,0.53 0 0 1 -0.5,0.6700000000000004 a0.52,0.52 0 0 1 -0.6000000000000002,-0.45 A0.55,0.55 0 0 1 41,10.210001082420348 z" id="svg_14"/><path class="cls-7" d="M44,10.74000108242035 a0.54,0.54 0 0 1 -0.5,0.5800000000000002 a0.53,0.53 0 0 1 -0.6300000000000002,-0.55 a0.51,0.51 0 0 1 0.4900000000000001,-0.5700000000000002 A0.55,0.55 0 0 1 44,10.74000108242035 z" id="svg_15"/><path class="cls-7" d="M18.810000000000002,13.140001082420355 a0.55,0.55 0 0 1 -0.4700000000000001,0.6000000000000002 a0.53,0.53 0 0 1 -0.6500000000000002,-0.52 a0.51,0.51 0 0 1 0.46,-0.5900000000000002 A0.55,0.55 0 0 1 18.810000000000002,13.140001082420355 z" id="svg_16"/><path class="cls-5" d="M20.61,13.74000108242035 a0.55,0.55 0 0 1 -0.52,-0.6500000000000002 a0.51,0.51 0 0 1 0.5800000000000002,-0.4800000000000001 a0.53,0.53 0 0 1 0.53,0.6400000000000002 A0.54,0.54 0 0 1 20.61,13.74000108242035 z" id="svg_17"/><path class="cls-5" d="M23.61,13.090001082420343 c0,0.3900000000000001 -0.18000000000000005,0.6100000000000002 -0.4900000000000001,0.6500000000000002 a0.53,0.53 0 0 1 -0.6400000000000002,-0.53 a0.51,0.51 0 0 1 0.4800000000000001,-0.5800000000000002 A0.56,0.56 0 0 1 23.61,13.090001082420343 z" id="svg_18"/><path class="cls-7" d="M27.760000000000005,12.610001082420354 c0.4,0 0.6100000000000002,0.2 0.6400000000000002,0.51 a0.53,0.53 0 0 1 -0.55,0.6300000000000002 a0.51,0.51 0 0 1 -0.5700000000000002,-0.4900000000000001 A0.56,0.56 0 0 1 27.760000000000005,12.610001082420354 z" id="svg_19"/><path class="cls-7" d="M30.180000000000007,13.74000108242035 a0.55,0.55 0 0 1 -0.5,-0.6800000000000004 a0.52,0.52 0 0 1 0.6000000000000002,-0.45 a0.53,0.53 0 0 1 0.5,0.6700000000000004 A0.55,0.55 0 0 1 30.180000000000007,13.74000108242035 z" id="svg_20"/><path class="cls-5" d="M32.59,13.74000108242035 a0.55,0.55 0 0 1 -0.5,-0.6700000000000004 a0.52,0.52 0 0 1 0.6000000000000002,-0.45 a0.53,0.53 0 0 1 0.5,0.6700000000000004 A0.54,0.54 0 0 1 32.59,13.74000108242035 z" id="svg_21"/><path class="cls-5" d="M35.06999999999999,13.74000108242035 c-0.4300000000000001,-0.07 -0.6400000000000002,-0.2900000000000001 -0.5900000000000002,-0.6600000000000003 a0.51,0.51 0 0 1 0.5800000000000002,-0.4800000000000001 a0.53,0.53 0 0 1 0.54,0.6400000000000002 A0.56,0.56 0 0 1 35.06999999999999,13.74000108242035 z" id="svg_22"/><path class="cls-5" d="M37.41999999999999,12.610001082420354 a0.54,0.54 0 0 1 0.5700000000000002,0.5 a0.53,0.53 0 0 1 -0.55,0.6300000000000002 a0.51,0.51 0 0 1 -0.5700000000000002,-0.4900000000000001 A0.54,0.54 0 0 1 37.41999999999999,12.610001082420354 z" id="svg_23"/><path class="cls-5" d="M39.80000000000001,13.74000108242035 a0.55,0.55 0 0 1 -0.51,-0.6600000000000003 a0.52,0.52 0 0 1 0.5900000000000002,-0.4700000000000001 a0.53,0.53 0 0 1 0.52,0.6600000000000003 A0.54,0.54 0 0 1 39.80000000000001,13.74000108242035 z" id="svg_24"/><path class="cls-5" d="M42.24000000000001,13.74000108242035 c-0.4200000000000001,-0.09000000000000004 -0.6200000000000002,-0.3200000000000001 -0.56,-0.6900000000000004 a0.56,0.56 0 0 1 1.12,0.1 A0.56,0.56 0 0 1 42.24000000000001,13.74000108242035 z" id="svg_25"/><path class="cls-5" d="M45.21000000000001,13.210001082420348 a0.55,0.55 0 0 1 -0.6500000000000002,0.52 a0.51,0.51 0 0 1 -0.4800000000000001,-0.5800000000000002 a0.53,0.53 0 0 1 0.6400000000000002,-0.53 A0.54,0.54 0 0 1 45.21000000000001,13.210001082420348 z" id="svg_26"/><path class="cls-6" d="M15.209999999999994,18.02000108242035 a0.55,0.55 0 0 1 -0.6600000000000003,0.51 a0.51,0.51 0 0 1 -0.46,-0.5900000000000002 a0.53,0.53 0 0 1 0.6600000000000003,-0.52 A0.54,0.54 0 0 1 15.209999999999994,18.02000108242035 z" id="svg_27"/><path class="cls-6" d="M47.620000000000005,17.920001082420356 c-0.06000000000000002,0.4400000000000001 -0.27,0.6500000000000002 -0.6500000000000002,0.6200000000000002 a0.51,0.51 0 0 1 -0.4900000000000001,-0.5700000000000002 a0.53,0.53 0 0 1 0.6300000000000002,-0.55 A0.5700000000000002,0.5700000000000002 0 0 1 47.620000000000005,17.920001082420356 z" id="svg_28"/><path class="cls-7" d="M12.200000000000003,19.74000108242035 a0.54,0.54 0 0 1 -0.52,-0.6500000000000002 a0.51,0.51 0 0 1 0.5800000000000002,-0.4800000000000001 a0.53,0.53 0 0 1 0.53,0.6400000000000002 A0.54,0.54 0 0 1 12.200000000000003,19.74000108242035 z" id="svg_29"/><path class="cls-6" d="M49.400000000000006,19.74000108242035 a0.55,0.55 0 0 1 -0.51,-0.6600000000000003 a0.52,0.52 0 0 1 0.5900000000000002,-0.46 a0.53,0.53 0 0 1 0.52,0.6600000000000003 A0.54,0.54 0 0 1 49.400000000000006,19.74000108242035 z" id="svg_30"/><path class="cls-7" d="M15.209999999999994,20.41000108242035 a0.54,0.54 0 0 1 -0.6500000000000002,0.52 a0.51,0.51 0 0 1 -0.4800000000000001,-0.5800000000000002 a0.53,0.53 0 0 1 0.6400000000000002,-0.53 A0.54,0.54 0 0 1 15.209999999999994,20.41000108242035 z" id="svg_31"/><path class="cls-8" d="M47.610000000000014,20.400001082420346 a0.55,0.55 0 0 1 -0.6400000000000002,0.54 a0.51,0.51 0 0 1 -0.4900000000000001,-0.5700000000000002 a0.53,0.53 0 0 1 0.6300000000000002,-0.55 A0.54,0.54 0 0 1 47.610000000000014,20.400001082420346 z" id="svg_32"/><path class="cls-6" d="M12.810000000000002,21.560001082420342 a0.54,0.54 0 0 1 -0.5,0.5700000000000002 a0.53,0.53 0 0 1 -0.6300000000000002,-0.55 a0.51,0.51 0 0 1 0.4900000000000001,-0.5700000000000002 A0.55,0.55 0 0 1 12.810000000000002,21.560001082420342 z" id="svg_33"/><path class="cls-7" d="M50,21.49000108242035 c0,0.3800000000000001 -0.17,0.6100000000000002 -0.4700000000000001,0.6500000000000002 a0.53,0.53 0 0 1 -0.6600000000000003,-0.52 a0.52,0.52 0 0 1 0.4700000000000001,-0.5900000000000002 A0.56,0.56 0 0 1 50,21.49000108242035 z" id="svg_34"/><path class="cls-7" d="M14.069999999999993,22.82000108242035 c0,-0.3600000000000001 0.19000000000000006,-0.6000000000000002 0.5800000000000002,-0.6000000000000002 a0.51,0.51 0 0 1 0.55,0.51 a0.52,0.52 0 0 1 -0.5700000000000002,0.6100000000000002 C14.310000000000002,23.340001082420343 14.14,23.140001082420355 14.069999999999993,22.82000108242035 z" id="svg_35"/><path class="cls-7" d="M12.810000000000002,23.940001082420352 a0.54,0.54 0 0 1 -0.4700000000000001,0.6000000000000002 a0.53,0.53 0 0 1 -0.6500000000000002,-0.52 a0.51,0.51 0 0 1 0.46,-0.5900000000000002 A0.55,0.55 0 0 1 12.810000000000002,23.940001082420352 z" id="svg_36"/><path class="cls-7" d="M50,24.000001082420354 a0.55,0.55 0 0 1 -0.6400000000000002,0.54 a0.51,0.51 0 0 1 -0.4900000000000001,-0.5700000000000002 a0.53,0.53 0 0 1 0.6300000000000002,-0.55 A0.54,0.54 0 0 1 50,24.000001082420354 z" id="svg_37"/><path class="cls-7" d="M14.590000000000003,25.74000108242035 a0.54,0.54 0 0 1 -0.51,-0.56 a0.56,0.56 0 1 1 1.12,0.1 A0.54,0.54 0 0 1 14.590000000000003,25.74000108242035 z" id="svg_38"/><path class="cls-5" d="M46.93000000000001,24.610001082420354 c0.3800000000000001,0 0.6100000000000002,0.15000000000000005 0.6600000000000003,0.46 a0.56,0.56 0 1 1 -1.12,0.1 A0.56,0.56 0 0 1 46.93000000000001,24.610001082420354 z" id="svg_39"/><path class="cls-6" d="M12.209999999999994,26.940001082420352 a0.54,0.54 0 0 1 -0.52,-0.6500000000000002 a0.51,0.51 0 0 1 0.5800000000000002,-0.4800000000000001 a0.56,0.56 0 1 1 -0.06000000000000002,1.12 z" id="svg_40"/><path class="cls-5" d="M50,26.340001082420343 a0.54,0.54 0 0 1 -0.4700000000000001,0.6000000000000002 a0.53,0.53 0 0 1 -0.6600000000000003,-0.52 a0.51,0.51 0 0 1 0.4700000000000001,-0.5900000000000002 A0.55,0.55 0 0 1 50,26.340001082420343 z" id="svg_41"/><path class="cls-8" d="M47,28.150001082420346 a0.55,0.55 0 0 1 -0.51,-0.6600000000000003 a0.52,0.52 0 0 1 0.5900000000000002,-0.46 a0.53,0.53 0 0 1 0.52,0.6600000000000003 A0.54,0.54 0 0 1 47,28.150001082420346 z" id="svg_42"/><path class="cls-5" d="M12.150000000000006,28.210001082420348 c0.3800000000000001,0 0.6100000000000002,0.17 0.6500000000000002,0.4700000000000001 a0.53,0.53 0 0 1 -0.52,0.6500000000000002 a0.52,0.52 0 0 1 -0.5900000000000002,-0.46 A0.56,0.56 0 0 1 12.150000000000006,28.210001082420348 z" id="svg_43"/><path class="cls-6" d="M50,28.74000108242035 c-0.06000000000000002,0.4400000000000001 -0.27,0.6500000000000002 -0.6500000000000002,0.6200000000000002 a0.51,0.51 0 0 1 -0.4900000000000001,-0.5700000000000002 a0.53,0.53 0 0 1 0.6300000000000002,-0.55 A0.5700000000000002,0.5700000000000002 0 0 1 50,28.74000108242035 z" id="svg_44"/><path class="cls-7" d="M14.069999999999993,30.02000108242035 c0,-0.3600000000000001 0.19000000000000006,-0.6000000000000002 0.5800000000000002,-0.6000000000000002 a0.51,0.51 0 0 1 0.55,0.51 a0.52,0.52 0 0 1 -0.5700000000000002,0.6100000000000002 C14.310000000000002,30.540001082420346 14.14,30.340001082420343 14.069999999999993,30.02000108242035 z" id="svg_45"/><path class="cls-6" d="M47,29.41000108242035 a0.54,0.54 0 0 1 0.5800000000000002,0.5 a0.53,0.53 0 0 1 -0.55,0.6300000000000002 a0.51,0.51 0 0 1 -0.5700000000000002,-0.4900000000000001 A0.54,0.54 0 0 1 47,29.41000108242035 z" id="svg_46"/><path class="cls-6" d="M11.670000000000002,31.24000108242035 a0.55,0.55 0 0 1 0.46,-0.6100000000000002 a0.53,0.53 0 0 1 0.6700000000000004,0.5 a0.52,0.52 0 0 1 -0.45,0.6000000000000002 A0.55,0.55 0 0 1 11.670000000000002,31.24000108242035 z" id="svg_47"/><path class="cls-5" d="M50,31.120001082420345 a0.55,0.55 0 0 1 -0.46,0.6100000000000002 a0.53,0.53 0 0 1 -0.6700000000000004,-0.51 a0.52,0.52 0 0 1 0.45,-0.6000000000000002 A0.55,0.55 0 0 1 50,31.120001082420345 z" id="svg_48"/><path class="cls-5" d="M14.670000000000002,32.96000108242035 c-0.4300000000000001,-0.07 -0.6400000000000002,-0.2900000000000001 -0.5900000000000002,-0.6600000000000003 a0.51,0.51 0 0 1 0.5800000000000002,-0.4800000000000001 a0.53,0.53 0 0 1 0.54,0.6400000000000002 A0.56,0.56 0 0 1 14.670000000000002,32.96000108242035 z" id="svg_49"/><path class="cls-7" d="M47,31.810001082420342 a0.54,0.54 0 0 1 0.5800000000000002,0.5 a0.52,0.52 0 0 1 -0.55,0.6300000000000002 a0.51,0.51 0 0 1 -0.5700000000000002,-0.4900000000000001 A0.55,0.55 0 0 1 47,31.810001082420342 z" id="svg_50"/><path class="cls-6" d="M12.209999999999994,33.01000108242036 a0.54,0.54 0 0 1 0.5900000000000002,0.4900000000000001 a0.53,0.53 0 0 1 -0.53,0.6400000000000002 a0.51,0.51 0 0 1 -0.5800000000000002,-0.4800000000000001 A0.55,0.55 0 0 1 12.209999999999994,33.01000108242036 z" id="svg_51"/><path class="cls-7" d="M49.400000000000006,34.150001082420346 a0.55,0.55 0 0 1 -0.51,-0.6600000000000003 a0.52,0.52 0 0 1 0.5900000000000002,-0.46 a0.53,0.53 0 0 1 0.52,0.6500000000000002 A0.54,0.54 0 0 1 49.400000000000006,34.150001082420346 z" id="svg_52"/><path class="cls-7" d="M15.209999999999994,34.81000108242034 a0.55,0.55 0 0 1 -0.6500000000000002,0.53 a0.51,0.51 0 0 1 -0.4800000000000001,-0.5800000000000002 a0.53,0.53 0 0 1 0.6400000000000002,-0.53 A0.54,0.54 0 0 1 15.209999999999994,34.81000108242034 z" id="svg_53"/><path class="cls-5" d="M47,34.21000108242035 a0.55,0.55 0 0 1 0.6100000000000002,0.46 a0.54,0.54 0 0 1 -0.5,0.6700000000000004 a0.52,0.52 0 0 1 -0.6000000000000002,-0.45 A0.55,0.55 0 0 1 47,34.21000108242035 z" id="svg_54"/><path class="cls-6" d="M12.200000000000003,35.41000108242034 c0.3600000000000001,0 0.6000000000000002,0.19000000000000006 0.6000000000000002,0.5800000000000002 a0.51,0.51 0 0 1 -0.51,0.55 a0.52,0.52 0 0 1 -0.6100000000000002,-0.5700000000000002 C11.680000000000007,35.640001082420355 11.879999999999995,35.48000108242036 12.200000000000003,35.41000108242034 z" id="svg_55"/><path class="cls-5" d="M49.33000000000001,35.41000108242034 c0.3800000000000001,0 0.6100000000000002,0.15000000000000005 0.6600000000000003,0.46 a0.56,0.56 0 1 1 -1.11,0.1 A0.56,0.56 0 0 1 49.33000000000001,35.41000108242034 z" id="svg_56"/><path class="cls-7" d="M15.209999999999994,37.140001082420355 a0.54,0.54 0 0 1 -0.4700000000000001,0.6000000000000002 a0.53,0.53 0 0 1 -0.6600000000000003,-0.52 a0.51,0.51 0 0 1 0.4700000000000001,-0.5900000000000002 A0.55,0.55 0 0 1 15.209999999999994,37.140001082420355 z" id="svg_57"/><path class="cls-6" d="M47.610000000000014,37.20000108242036 a0.55,0.55 0 0 1 -0.6400000000000002,0.54 a0.51,0.51 0 0 1 -0.4900000000000001,-0.5700000000000002 a0.53,0.53 0 0 1 0.6300000000000002,-0.55 A0.54,0.54 0 0 1 47.610000000000014,37.20000108242036 z" id="svg_58"/><path class="cls-7" d="M12.810000000000002,38.29000108242036 c0,0.4 -0.19000000000000006,0.6100000000000002 -0.5,0.6400000000000002 a0.53,0.53 0 0 1 -0.6300000000000002,-0.55 a0.51,0.51 0 0 1 0.4900000000000001,-0.5700000000000002 A0.56,0.56 0 0 1 12.810000000000002,38.29000108242036 z" id="svg_59"/><path class="cls-6" d="M50,38.28000108242034 c0,0.3700000000000001 -0.15000000000000005,0.6000000000000002 -0.46,0.6500000000000002 a0.53,0.53 0 0 1 -0.6700000000000004,-0.5 a0.52,0.52 0 0 1 0.45,-0.6100000000000002 A0.56,0.56 0 0 1 50,38.28000108242034 z" id="svg_60"/><path class="cls-7" d="M15.209999999999994,39.49000108242035 c0,0.4 -0.2,0.6100000000000002 -0.5,0.6400000000000002 a0.53,0.53 0 0 1 -0.6300000000000002,-0.55 a0.51,0.51 0 0 1 0.4900000000000001,-0.5700000000000002 A0.56,0.56 0 0 1 15.209999999999994,39.49000108242035 z" id="svg_61"/><path class="cls-6" d="M47.610000000000014,39.620001082420345 a0.55,0.55 0 0 1 -0.6600000000000003,0.51 a0.52,0.52 0 0 1 -0.46,-0.5900000000000002 a0.53,0.53 0 0 1 0.6600000000000003,-0.52 A0.54,0.54 0 0 1 47.610000000000014,39.620001082420345 z" id="svg_62"/><path class="cls-6" d="M12.810000000000002,40.74000108242035 a0.54,0.54 0 0 1 -0.4900000000000001,0.5900000000000002 a0.53,0.53 0 0 1 -0.6400000000000002,-0.53 a0.51,0.51 0 0 1 0.4800000000000001,-0.5800000000000002 A0.55,0.55 0 0 1 12.810000000000002,40.74000108242035 z" id="svg_63"/><path class="cls-5" d="M50,40.80000108242035 c-0.08000000000000003,0.4 -0.3100000000000001,0.6000000000000002 -0.6800000000000004,0.54 a0.52,0.52 0 0 1 -0.45,-0.6000000000000002 a0.54,0.54 0 0 1 0.6700000000000004,-0.51 A0.56,0.56 0 0 1 50,40.80000108242035 z" id="svg_64"/><path class="cls-5" d="M15.209999999999994,41.96000108242035 a0.54,0.54 0 0 1 -0.5,0.5700000000000002 a0.53,0.53 0 0 1 -0.6300000000000002,-0.55 a0.51,0.51 0 0 1 0.4900000000000001,-0.5700000000000002 A0.54,0.54 0 0 1 15.209999999999994,41.96000108242035 z" id="svg_65"/><path class="cls-5" d="M47,42.56000108242034 c-0.4,-0.09000000000000004 -0.6100000000000002,-0.3100000000000001 -0.54,-0.6800000000000004 a0.52,0.52 0 0 1 0.6000000000000002,-0.45 a0.53,0.53 0 0 1 0.51,0.6700000000000004 A0.56,0.56 0 0 1 47,42.56000108242034 z" id="svg_66"/><path class="cls-7" d="M12.810000000000002,43.21000108242035 a0.54,0.54 0 0 1 -0.6500000000000002,0.52 a0.51,0.51 0 0 1 -0.4800000000000001,-0.5800000000000002 a0.53,0.53 0 0 1 0.6400000000000002,-0.53 A0.54,0.54 0 0 1 12.810000000000002,43.21000108242035 z" id="svg_67"/><path class="cls-5" d="M50,43.16000108242034 a0.54,0.54 0 0 1 -0.5,0.5800000000000002 a0.53,0.53 0 0 1 -0.6300000000000002,-0.55 a0.51,0.51 0 0 1 0.4900000000000001,-0.5700000000000002 A0.55,0.55 0 0 1 50,43.16000108242034 z" id="svg_68"/><path class="cls-7" d="M14.650000000000006,44.96000108242035 c-0.4200000000000001,-0.08000000000000003 -0.6200000000000002,-0.3000000000000001 -0.5700000000000002,-0.6700000000000004 a0.52,0.52 0 0 1 0.5900000000000002,-0.46 a0.53,0.53 0 0 1 0.52,0.6600000000000003 A0.55,0.55 0 0 1 14.650000000000006,44.96000108242035 z" id="svg_69"/><path class="cls-7" d="M47,43.81000108242034 a0.54,0.54 0 0 1 0.6100000000000002,0.46 a0.53,0.53 0 0 1 -0.5,0.6700000000000004 a0.52,0.52 0 0 1 -0.6000000000000002,-0.45 A0.55,0.55 0 0 1 47,43.81000108242034 z" id="svg_70"/><path class="cls-6" d="M16.950000000000003,47.41000108242034 c0.4,0 0.6100000000000002,0.18000000000000005 0.6500000000000002,0.4900000000000001 a0.53,0.53 0 0 1 -0.53,0.6400000000000002 a0.51,0.51 0 0 1 -0.5800000000000002,-0.4800000000000001 A0.56,0.56 0 0 1 16.950000000000003,47.41000108242034 z" id="svg_71"/><path class="cls-7" d="M19.340000000000003,47.41000108242034 c0.3800000000000001,0 0.6100000000000002,0.17 0.6500000000000002,0.4700000000000001 a0.53,0.53 0 0 1 -0.52,0.6500000000000002 a0.51,0.51 0 0 1 -0.5900000000000002,-0.46 A0.56,0.56 0 0 1 19.340000000000003,47.41000108242034 z" id="svg_72"/><path class="cls-6" d="M21.819999999999993,47.41000108242034 a0.54,0.54 0 0 1 0.5700000000000002,0.5 a0.53,0.53 0 0 1 -0.55,0.6300000000000002 a0.51,0.51 0 0 1 -0.5700000000000002,-0.4900000000000001 A0.55,0.55 0 0 1 21.819999999999993,47.41000108242034 z" id="svg_73"/><path class="cls-7" d="M24.810000000000002,48.01000108242036 a0.55,0.55 0 0 1 -0.6500000000000002,0.52 a0.51,0.51 0 0 1 -0.4800000000000001,-0.5800000000000002 a0.53,0.53 0 0 1 0.6400000000000002,-0.53 A0.54,0.54 0 0 1 24.810000000000002,48.01000108242036 z" id="svg_74"/><path class="cls-7" d="M27.209999999999994,48.03000108242034 a0.55,0.55 0 0 1 -0.6700000000000004,0.5 a0.52,0.52 0 0 1 -0.45,-0.6000000000000002 a0.53,0.53 0 0 1 0.6700000000000004,-0.5 A0.54,0.54 0 0 1 27.209999999999994,48.03000108242034 z" id="svg_75"/><path class="cls-7" d="M29.61,48.02000108242035 a0.55,0.55 0 0 1 -0.6600000000000003,0.51 a0.51,0.51 0 0 1 -0.46,-0.5900000000000002 a0.53,0.53 0 0 1 0.6500000000000002,-0.52 A0.54,0.54 0 0 1 29.61,48.02000108242035 z" id="svg_76"/><path class="cls-6" d="M32,47.890001082420355 c0,0.3800000000000001 -0.17,0.6100000000000002 -0.4700000000000001,0.6500000000000002 a0.53,0.53 0 0 1 -0.6500000000000002,-0.52 a0.52,0.52 0 0 1 0.46,-0.5900000000000002 A0.56,0.56 0 0 1 32,47.890001082420355 z" id="svg_77"/><path class="cls-7" d="M33.78,48.55000108242035 a0.55,0.55 0 0 1 -0.5,-0.6700000000000004 a0.52,0.52 0 0 1 0.6000000000000002,-0.45 a0.54,0.54 0 0 1 0.51,0.6700000000000004 A0.55,0.55 0 0 1 33.78,48.55000108242035 z" id="svg_78"/><path class="cls-6" d="M36.81,47.920001082420356 a0.55,0.55 0 0 1 -0.46,0.6100000000000002 a0.53,0.53 0 0 1 -0.6700000000000004,-0.5 a0.52,0.52 0 0 1 0.45,-0.6000000000000002 A0.55,0.55 0 0 1 36.81,47.920001082420356 z" id="svg_79"/><path class="cls-6" d="M39.21000000000001,48.02000108242035 a0.55,0.55 0 0 1 -0.6600000000000003,0.51 a0.51,0.51 0 0 1 -0.46,-0.5900000000000002 a0.53,0.53 0 0 1 0.6500000000000002,-0.52 A0.54,0.54 0 0 1 39.21000000000001,48.02000108242035 z" id="svg_80"/><path class="cls-7" d="M41,48.55000108242035 a0.54,0.54 0 0 1 -0.52,-0.6500000000000002 a0.51,0.51 0 0 1 0.5800000000000002,-0.4800000000000001 a0.53,0.53 0 0 1 0.53,0.6400000000000002 A0.54,0.54 0 0 1 41,48.55000108242035 z" id="svg_81"/><path class="cls-6" d="M44,47.920001082420356 a0.55,0.55 0 0 1 -0.46,0.6100000000000002 a0.53,0.53 0 0 1 -0.6700000000000004,-0.51 a0.52,0.52 0 0 1 0.45,-0.6100000000000002 A0.55,0.55 0 0 1 44,47.920001082420356 z" id="svg_82"/><path class="cls-5" d="M18.810000000000002,50.41000108242034 a0.55,0.55 0 0 1 -0.6500000000000002,0.52 a0.51,0.51 0 0 1 -0.4800000000000001,-0.5800000000000002 a0.53,0.53 0 0 1 0.6400000000000002,-0.53 A0.54,0.54 0 0 1 18.810000000000002,50.41000108242034 z" id="svg_83"/><path class="cls-5" d="M20.61,50.95000108242036 a0.55,0.55 0 0 1 -0.52,-0.6500000000000002 a0.51,0.51 0 0 1 0.5800000000000002,-0.4800000000000001 a0.53,0.53 0 0 1 0.53,0.6400000000000002 A0.54,0.54 0 0 1 20.61,50.95000108242036 z" id="svg_84"/><path class="cls-7" d="M23.61,50.41000108242034 a0.54,0.54 0 0 1 -0.6500000000000002,0.52 a0.51,0.51 0 0 1 -0.4800000000000001,-0.5800000000000002 a0.53,0.53 0 0 1 0.6400000000000002,-0.53 A0.54,0.54 0 0 1 23.61,50.41000108242034 z" id="svg_85"/><path class="cls-7" d="M26,50.32000108242036 a0.55,0.55 0 0 1 -0.46,0.6100000000000002 a0.53,0.53 0 0 1 -0.6700000000000004,-0.51 a0.52,0.52 0 0 1 0.45,-0.6100000000000002 A0.55,0.55 0 0 1 26,50.32000108242036 z" id="svg_86"/><path class="cls-7" d="M27.739999999999995,49.81000108242034 c0.3700000000000001,0 0.6000000000000002,0.15000000000000005 0.6500000000000002,0.46 a0.53,0.53 0 0 1 -0.51,0.6700000000000004 a0.52,0.52 0 0 1 -0.6100000000000002,-0.45 A0.56,0.56 0 0 1 27.739999999999995,49.81000108242034 z" id="svg_87"/><path class="cls-7" d="M30.810000000000002,50.44000108242034 a0.55,0.55 0 0 1 -0.6700000000000004,0.5 a0.52,0.52 0 0 1 -0.45,-0.6000000000000002 a0.53,0.53 0 0 1 0.6700000000000004,-0.51 A0.55,0.55 0 0 1 30.810000000000002,50.44000108242034 z" id="svg_88"/><path class="cls-6" d="M33.21000000000001,50.35000108242036 a0.54,0.54 0 0 1 -0.4900000000000001,0.5900000000000002 a0.53,0.53 0 0 1 -0.6400000000000002,-0.53 a0.51,0.51 0 0 1 0.4800000000000001,-0.5800000000000002 A0.55,0.55 0 0 1 33.21000000000001,50.35000108242036 z" id="svg_89"/><path class="cls-7" d="M35,49.81000108242034 a0.55,0.55 0 0 1 0.56,0.6200000000000002 a0.51,0.51 0 0 1 -0.55,0.51 a0.52,0.52 0 0 1 -0.5700000000000002,-0.6100000000000002 A0.54,0.54 0 0 1 35,49.81000108242034 z" id="svg_90"/><path class="cls-7" d="M37.400000000000006,50.95000108242036 a0.54,0.54 0 0 1 -0.52,-0.6500000000000002 a0.51,0.51 0 0 1 0.5800000000000002,-0.4800000000000001 a0.53,0.53 0 0 1 0.53,0.6400000000000002 A0.54,0.54 0 0 1 37.400000000000006,50.95000108242036 z" id="svg_91"/><path class="cls-7" d="M39.80000000000001,49.81000108242034 c0.3600000000000001,0 0.6000000000000002,0.19000000000000006 0.6000000000000002,0.5800000000000002 a0.56,0.56 0 0 1 -1.12,0.1 A0.56,0.56 0 0 1 39.80000000000001,49.81000108242034 z" id="svg_92"/><path class="cls-7" d="M42.81,50.35000108242036 a0.54,0.54 0 0 1 -0.4900000000000001,0.5900000000000002 a0.53,0.53 0 0 1 -0.6400000000000002,-0.53 a0.51,0.51 0 0 1 0.4800000000000001,-0.5800000000000002 A0.55,0.55 0 0 1 42.81,50.35000108242036 z" id="svg_93"/><path class="cls-9" d="M51,35.41000108242034 c0.05000000000000002,0.06000000000000002 0.15000000000000005,0.13 0.18000000000000005,0.23 a0.15000000000000005,0.15000000000000005 0 0 1 -0.19000000000000006,0.19000000000000006 a0.3800000000000001,0.3800000000000001 0 0 1 -0.22000000000000006,-0.22000000000000006 C50.75,35.48000108242036 50.849999999999994,35.400001082420346 51,35.41000108242034 z" id="svg_94"/><path class="cls-7" d="M14.579999999999998,28.13000108242035 a0.52,0.52 0 0 1 -0.4800000000000001,-0.5700000000000002 a0.5,0.5 0 0 1 0.53,-0.51 a0.51,0.51 0 0 1 0.54,0.6200000000000002 A0.52,0.52 0 0 1 14.579999999999998,28.13000108242035 z" id="svg_95"/><rect class="cls-10" x="15.5" y="15.519999861717224" width="30.579999923706055" height="30.219999313354492" id="svg_96"/><polygon class="cls-10" points="10.830001831054688,15.74000108242035 10.830001831054688,45.74000108242035 15.720001220703125,51.74000108242035 46.08000183105469,51.74000108242035 50.75,45.74000108242035 50.75,15.74000108242035 46.08000183105469,9.570002913475037 15.720001220703125,9.570002913475037 10.830001831054688,15.74000108242035 " id="svg_97"/><rect class="cls-10" x="18.220001220703125" y="18.880000472068787" width="10.829999923706055" height="10.829999923706055" id="svg_98"/><rect class="cls-10" x="32.49000549316406" y="18.880000472068787" width="10.829999923706055" height="10.829999923706055" id="svg_99"/><rect class="cls-10" x="18.220001220703125" y="32.73000657558441" width="10.829999923706055" height="10.829999923706055" id="svg_100"/><rect class="cls-10" x="32.49000549316406" y="32.73000657558441" width="10.829999923706055" height="10.829999923706055" id="svg_101"/></g><g id="Layer_14" data-name="Layer 14" class=""><rect class="cls-1" x="11.430000305175781" y="15.74000108242035" width="3.759999990463257" height="30.010000228881836" id="svg_102"/><rect class="cls-1" x="17.209999084472656" y="10.070002913475037" width="28.290000915527344" height="4.329999923706055" id="svg_103"/><rect class="cls-1" x="46.33000183105469" y="16.750003218650818" width="3.6700000762939453" height="29.260000228881836" id="svg_104"/><rect class="cls-1" x="15.720001220703125" y="47.07000291347504" width="29.780000686645508" height="4" id="svg_105"/><path class="cls-11" d="M14,16.280001082420355 a0.5,0.5 0 0 0 0,1 A0.5,0.5 0 0 0 14,16.280001082420355 z" id="svg_106"/><path class="cls-11" d="M14,17.74000108242035 a0.5,0.5 0 0 0 0,1 A0.5,0.5 0 0 0 14,17.74000108242035 z" id="svg_107"/><path class="cls-11" d="M14,19.280001082420355 a0.5,0.5 0 0 0 0,1 A0.5,0.5 0 0 0 14,19.280001082420355 z" id="svg_108"/><path class="cls-11" d="M14,20.74000108242035 a0.5,0.5 0 0 0 0,1 A0.5,0.5 0 0 0 14,20.74000108242035 z" id="svg_109"/><path class="cls-11" d="M14,22.280001082420355 a0.5,0.5 0 0 0 0,1 A0.5,0.5 0 0 0 14,22.280001082420355 z" id="svg_110"/><path class="cls-11" d="M14,23.74000108242035 a0.5,0.5 0 0 0 0,1 A0.5,0.5 0 0 0 14,23.74000108242035 z" id="svg_111"/><path class="cls-11" d="M14,26.24000108242035 a0.5,0.5 0 0 0 0,-1 a0.5,0.5 0 0 0 0,1 z" id="svg_112"/><path class="cls-11" d="M14,27.74000108242035 a0.5,0.5 0 0 0 0,-1 a0.5,0.5 0 0 0 0,1 z" id="svg_113"/><path class="cls-11" d="M14,29.24000108242035 a0.5,0.5 0 0 0 0,-1 a0.5,0.5 0 0 0 0,1 z" id="svg_114"/><path class="cls-11" d="M14,30.74000108242035 a0.5,0.5 0 0 0 0,-1 a0.5,0.5 0 0 0 0,1 z" id="svg_115"/><path class="cls-11" d="M14,32.24000108242035 a0.5,0.5 0 0 0 0,-1 a0.5,0.5 0 0 0 0,1 z" id="svg_116"/><path class="cls-11" d="M14,33.74000108242035 a0.5,0.5 0 0 0 0,-1 a0.5,0.5 0 0 0 0,1 z" id="svg_117"/><path class="cls-11" d="M14,35.24000108242035 a0.5,0.5 0 0 0 0,-1 a0.5,0.5 0 0 0 0,1 z" id="svg_118"/><path class="cls-11" d="M14,36.74000108242035 a0.5,0.5 0 0 0 0,-1 a0.5,0.5 0 0 0 0,1 z" id="svg_119"/><path class="cls-11" d="M14,38.24000108242035 a0.5,0.5 0 0 0 0,-1 a0.5,0.5 0 0 0 0,1 z" id="svg_120"/><path class="cls-11" d="M14,39.74000108242035 a0.5,0.5 0 0 0 0,-1 a0.5,0.5 0 0 0 0,1 z" id="svg_121"/><path class="cls-11" d="M14,41.24000108242035 a0.5,0.5 0 0 0 0,-1 a0.5,0.5 0 0 0 0,1 z" id="svg_122"/><path class="cls-11" d="M14,42.74000108242035 a0.5,0.5 0 0 0 0,-1 a0.5,0.5 0 0 0 0,1 z" id="svg_123"/><path class="cls-11" d="M14,44.24000108242035 a0.5,0.5 0 0 0 0,-1 a0.5,0.5 0 0 0 0,1 z" id="svg_124"/><path class="cls-11" d="M12.5,17.74000108242035 a0.5,0.5 0 0 0 0,-1 a0.5,0.5 0 0 0 0,1 z" id="svg_125"/><path class="cls-11" d="M12.5,19.24000108242035 a0.5,0.5 0 0 0 0,-1 a0.5,0.5 0 0 0 0,1 z" id="svg_126"/><path class="cls-11" d="M12.5,20.74000108242035 a0.5,0.5 0 0 0 0,-1 a0.5,0.5 0 0 0 0,1 z" id="svg_127"/><path class="cls-11" d="M12.5,22.24000108242035 a0.5,0.5 0 0 0 0,-1 a0.5,0.5 0 0 0 0,1 z" id="svg_128"/><path class="cls-11" d="M12.5,23.74000108242035 a0.5,0.5 0 0 0 0,-1 a0.5,0.5 0 0 0 0,1 z" id="svg_129"/><path class="cls-11" d="M12.5,25.24000108242035 a0.5,0.5 0 0 0 0,-1 a0.5,0.5 0 0 0 0,1 z" id="svg_130"/><path class="cls-11" d="M12.5,26.74000108242035 a0.5,0.5 0 0 0 0,-1 a0.5,0.5 0 0 0 0,1 z" id="svg_131"/><path class="cls-11" d="M12.5,28.24000108242035 a0.5,0.5 0 0 0 0,-1 a0.5,0.5 0 0 0 0,1 z" id="svg_132"/><path class="cls-11" d="M12.5,29.74000108242035 a0.5,0.5 0 0 0 0,-1 a0.5,0.5 0 0 0 0,1 z" id="svg_133"/><path class="cls-11" d="M12.5,31.24000108242035 a0.5,0.5 0 0 0 0,-1 a0.5,0.5 0 0 0 0,1 z" id="svg_134"/><path class="cls-11" d="M12.5,32.74000108242035 a0.5,0.5 0 0 0 0,-1 a0.5,0.5 0 0 0 0,1 z" id="svg_135"/><path class="cls-11" d="M12.5,34.24000108242035 a0.5,0.5 0 0 0 0,-1 a0.5,0.5 0 0 0 0,1 z" id="svg_136"/><path class="cls-11" d="M12.5,35.74000108242035 a0.5,0.5 0 0 0 0,-1 a0.5,0.5 0 0 0 0,1 z" id="svg_137"/><path class="cls-11" d="M12.5,37.24000108242035 a0.5,0.5 0 0 0 0,-1 a0.5,0.5 0 0 0 0,1 z" id="svg_138"/><path class="cls-11" d="M12.5,38.74000108242035 a0.5,0.5 0 0 0 0,-1 a0.5,0.5 0 0 0 0,1 z" id="svg_139"/><path class="cls-11" d="M12.5,40.24000108242035 a0.5,0.5 0 0 0 0,-1 a0.5,0.5 0 0 0 0,1 z" id="svg_140"/><path class="cls-11" d="M12.5,41.74000108242035 a0.5,0.5 0 0 0 0,-1 a0.5,0.5 0 0 0 0,1 z" id="svg_141"/><path class="cls-11" d="M12.5,43.24000108242035 a0.5,0.5 0 0 0 0,-1 a0.5,0.5 0 0 0 0,1 z" id="svg_142"/><path class="cls-11" d="M14,16.280001082420355 a0.5,0.5 0 0 0 0,1 A0.5,0.5 0 0 0 14,16.280001082420355 z" id="svg_143"/><path class="cls-11" d="M14,17.74000108242035 a0.5,0.5 0 0 0 0,1 A0.5,0.5 0 0 0 14,17.74000108242035 z" id="svg_144"/><path class="cls-11" d="M14,19.280001082420355 a0.5,0.5 0 0 0 0,1 A0.5,0.5 0 0 0 14,19.280001082420355 z" id="svg_145"/><path class="cls-11" d="M14,20.74000108242035 a0.5,0.5 0 0 0 0,1 A0.5,0.5 0 0 0 14,20.74000108242035 z" id="svg_146"/><path class="cls-11" d="M14,22.280001082420355 a0.5,0.5 0 0 0 0,1 A0.5,0.5 0 0 0 14,22.280001082420355 z" id="svg_147"/><path class="cls-11" d="M14,23.74000108242035 a0.5,0.5 0 0 0 0,1 A0.5,0.5 0 0 0 14,23.74000108242035 z" id="svg_148"/><path class="cls-11" d="M14,26.24000108242035 a0.5,0.5 0 0 0 0,-1 a0.5,0.5 0 0 0 0,1 z" id="svg_149"/><path class="cls-11" d="M14,27.74000108242035 a0.5,0.5 0 0 0 0,-1 a0.5,0.5 0 0 0 0,1 z" id="svg_150"/><path class="cls-11" d="M14,29.24000108242035 a0.5,0.5 0 0 0 0,-1 a0.5,0.5 0 0 0 0,1 z" id="svg_151"/><path class="cls-11" d="M14,30.74000108242035 a0.5,0.5 0 0 0 0,-1 a0.5,0.5 0 0 0 0,1 z" id="svg_152"/><path class="cls-11" d="M14,32.24000108242035 a0.5,0.5 0 0 0 0,-1 a0.5,0.5 0 0 0 0,1 z" id="svg_153"/><path class="cls-11" d="M14,33.74000108242035 a0.5,0.5 0 0 0 0,-1 a0.5,0.5 0 0 0 0,1 z" id="svg_154"/><path class="cls-11" d="M14,35.24000108242035 a0.5,0.5 0 0 0 0,-1 a0.5,0.5 0 0 0 0,1 z" id="svg_155"/><path class="cls-11" d="M14,36.74000108242035 a0.5,0.5 0 0 0 0,-1 a0.5,0.5 0 0 0 0,1 z" id="svg_156"/><path class="cls-11" d="M14,38.24000108242035 a0.5,0.5 0 0 0 0,-1 a0.5,0.5 0 0 0 0,1 z" id="svg_157"/><path class="cls-11" d="M14,39.74000108242035 a0.5,0.5 0 0 0 0,-1 a0.5,0.5 0 0 0 0,1 z" id="svg_158"/><path class="cls-11" d="M14,41.24000108242035 a0.5,0.5 0 0 0 0,-1 a0.5,0.5 0 0 0 0,1 z" id="svg_159"/><path class="cls-11" d="M14,42.74000108242035 a0.5,0.5 0 0 0 0,-1 a0.5,0.5 0 0 0 0,1 z" id="svg_160"/><path class="cls-11" d="M14,44.24000108242035 a0.5,0.5 0 0 0 0,-1 a0.5,0.5 0 0 0 0,1 z" id="svg_161"/><path class="cls-11" d="M12.5,17.74000108242035 a0.5,0.5 0 0 0 0,-1 a0.5,0.5 0 0 0 0,1 z" id="svg_162"/><path class="cls-11" d="M12.5,19.24000108242035 a0.5,0.5 0 0 0 0,-1 a0.5,0.5 0 0 0 0,1 z" id="svg_163"/><path class="cls-11" d="M12.5,20.74000108242035 a0.5,0.5 0 0 0 0,-1 a0.5,0.5 0 0 0 0,1 z" id="svg_164"/><path class="cls-11" d="M12.5,22.24000108242035 a0.5,0.5 0 0 0 0,-1 a0.5,0.5 0 0 0 0,1 z" id="svg_165"/><path class="cls-11" d="M12.5,23.74000108242035 a0.5,0.5 0 0 0 0,-1 a0.5,0.5 0 0 0 0,1 z" id="svg_166"/><path class="cls-11" d="M12.5,25.24000108242035 a0.5,0.5 0 0 0 0,-1 a0.5,0.5 0 0 0 0,1 z" id="svg_167"/><path class="cls-11" d="M12.5,26.74000108242035 a0.5,0.5 0 0 0 0,-1 a0.5,0.5 0 0 0 0,1 z" id="svg_168"/><path class="cls-11" d="M12.5,28.24000108242035 a0.5,0.5 0 0 0 0,-1 a0.5,0.5 0 0 0 0,1 z" id="svg_169"/><path class="cls-11" d="M12.5,29.74000108242035 a0.5,0.5 0 0 0 0,-1 a0.5,0.5 0 0 0 0,1 z" id="svg_170"/><path class="cls-11" d="M12.5,31.24000108242035 a0.5,0.5 0 0 0 0,-1 a0.5,0.5 0 0 0 0,1 z" id="svg_171"/><path class="cls-11" d="M12.5,32.74000108242035 a0.5,0.5 0 0 0 0,-1 a0.5,0.5 0 0 0 0,1 z" id="svg_172"/><path class="cls-11" d="M12.5,34.24000108242035 a0.5,0.5 0 0 0 0,-1 a0.5,0.5 0 0 0 0,1 z" id="svg_173"/><path class="cls-11" d="M12.5,35.74000108242035 a0.5,0.5 0 0 0 0,-1 a0.5,0.5 0 0 0 0,1 z" id="svg_174"/><path class="cls-11" d="M12.5,37.24000108242035 a0.5,0.5 0 0 0 0,-1 a0.5,0.5 0 0 0 0,1 z" id="svg_175"/><path class="cls-11" d="M12.5,38.74000108242035 a0.5,0.5 0 0 0 0,-1 a0.5,0.5 0 0 0 0,1 z" id="svg_176"/><path class="cls-11" d="M12.5,40.24000108242035 a0.5,0.5 0 0 0 0,-1 a0.5,0.5 0 0 0 0,1 z" id="svg_177"/><path class="cls-11" d="M12.5,41.74000108242035 a0.5,0.5 0 0 0 0,-1 a0.5,0.5 0 0 0 0,1 z" id="svg_178"/><path class="cls-11" d="M12.5,43.24000108242035 a0.5,0.5 0 0 0 0,-1 a0.5,0.5 0 0 0 0,1 z" id="svg_179"/></g><g id="Layer_2" data-name="Layer 2" class=""><rect class="cls-11" x="18.519996643066406" y="17.640002608299255" width="0.5699999928474426" height="1.2200000286102295" id="svg_180"/><rect class="cls-11" x="19.529998779296875" y="17.640002608299255" width="0.5699999928474426" height="1.2200000286102295" id="svg_181"/><rect class="cls-11" x="20.529998779296875" y="17.640002608299255" width="0.5699999928474426" height="1.2200000286102295" id="svg_182"/><rect class="cls-11" x="21.540000915527344" y="17.640002608299255" width="0.5699999928474426" height="1.2200000286102295" id="svg_183"/><rect class="cls-11" x="22.550003051757812" y="17.640002608299255" width="0.5699999928474426" height="1.2200000286102295" id="svg_184"/><rect class="cls-11" x="23.55999755859375" y="17.640002608299255" width="0.5699999928474426" height="1.2200000286102295" id="svg_185"/><rect class="cls-11" x="26.580001831054688" y="17.640002608299255" width="0.5699999928474426" height="1.2200000286102295" id="svg_186"/><rect class="cls-11" x="25.56999969482422" y="17.640002608299255" width="0.5699999928474426" height="1.2200000286102295" id="svg_187"/><rect class="cls-11" x="24.55999755859375" y="17.640002608299255" width="0.5699999928474426" height="1.2200000286102295" id="svg_188"/><rect class="cls-11" x="27.589996337890625" y="17.640002608299255" width="0.5699999928474426" height="1.2200000286102295" id="svg_189"/><rect class="cls-11" x="28.589996337890625" y="17.640002608299255" width="0.5699999928474426" height="1.2200000286102295" id="svg_190"/></g><g id="Layer_3" data-name="Layer 3" class=""><rect class="cls-11" x="18.519996643066406" y="29.519999861717224" width="0.5699999928474426" height="1.2200000286102295" id="svg_191"/><rect class="cls-11" x="19.529998779296875" y="29.519999861717224" width="0.5699999928474426" height="1.2200000286102295" id="svg_192"/><rect class="cls-11" x="20.529998779296875" y="29.519999861717224" width="0.5699999928474426" height="1.2200000286102295" id="svg_193"/><rect class="cls-11" x="21.540000915527344" y="29.519999861717224" width="0.5699999928474426" height="1.2200000286102295" id="svg_194"/><rect class="cls-11" x="22.550003051757812" y="29.519999861717224" width="0.5699999928474426" height="1.2200000286102295" id="svg_195"/><rect class="cls-11" x="23.55999755859375" y="29.519999861717224" width="0.5699999928474426" height="1.2200000286102295" id="svg_196"/><rect class="cls-11" x="26.580001831054688" y="29.519999861717224" width="0.5699999928474426" height="1.2200000286102295" id="svg_197"/><rect class="cls-11" x="25.56999969482422" y="29.519999861717224" width="0.5699999928474426" height="1.2200000286102295" id="svg_198"/><rect class="cls-11" x="24.55999755859375" y="29.519999861717224" width="0.5699999928474426" height="1.2200000286102295" id="svg_199"/><rect class="cls-11" x="27.589996337890625" y="29.519999861717224" width="0.5699999928474426" height="1.2200000286102295" id="svg_200"/><rect class="cls-11" x="28.589996337890625" y="29.519999861717224" width="0.5699999928474426" height="1.2200000286102295" id="svg_201"/></g><g id="Layer_4" data-name="Layer 4" class=""><rect class="cls-11" x="29.01999694108963" y="281.9499925374985" width="0.5699999928474426" height="1.2200000286102295" transform="rotate(-90 -97.18000030517577,155.88999938964847) " id="svg_202"/><rect class="cls-11" x="30.029996931552887" y="279.9300035238266" width="0.5699999928474426" height="1.2200000286102295" transform="rotate(-90 -96.1699981689453,154.88000488281253) " id="svg_203"/><rect class="cls-11" x="31.03999698162079" y="277.9100068807602" width="0.5699999928474426" height="1.2200000286102295" transform="rotate(-90 -95.16000366210936,153.8700103759766) " id="svg_204"/><rect class="cls-11" x="32.0399968624115" y="275.9000047445297" width="0.5699999928474426" height="1.2200000286102295" transform="rotate(-90 -94.16000366210936,152.8700103759766) " id="svg_205"/><rect class="cls-11" x="33.049996852874756" y="273.8899949789047" width="0.5699999928474426" height="1.2200000286102295" transform="rotate(-90 -93.15000152587889,151.8600006103516) " id="svg_206"/><rect class="cls-11" x="34.05999708175659" y="271.8699983358383" width="0.5699999928474426" height="1.2200000286102295" transform="rotate(-90 -92.13999938964842,150.85000610351565) " id="svg_207"/><rect class="cls-11" x="37.079997062683105" y="265.829997420311" width="0.5699999928474426" height="1.2200000286102295" transform="rotate(-90 -89.12000274658202,147.83000183105472) " id="svg_208"/><rect class="cls-11" x="36.06999683380127" y="267.840007185936" width="0.5699999928474426" height="1.2200000286102295" transform="rotate(-90 -90.12999725341795,148.84001159667972) " id="svg_209"/><rect class="cls-11" x="35.05999708175659" y="269.8600038290024" width="0.5699999928474426" height="1.2200000286102295" transform="rotate(-90 -91.13999938964842,149.85000610351565) " id="svg_210"/><rect class="cls-11" x="38.08999729156494" y="263.81000077724457" width="0.5699999928474426" height="1.2200000286102295" transform="rotate(-90 -88.11000061035155,146.82000732421878) " id="svg_211"/><rect class="cls-11" x="39.08999729156494" y="261.80000627040863" width="0.5699999928474426" height="1.2200000286102295" transform="rotate(-90 -87.11000061035155,145.82000732421878) " id="svg_212"/></g><g id="Layer_5" data-name="Layer 5" class=""><rect class="cls-11" x="5.340000152587891" y="269.92000138759613" width="0.5699999928474426" height="1.2200000286102295" transform="rotate(-90 -108.97999572753905,143.94000244140628) " id="svg_213"/><rect class="cls-11" x="6.340000152587891" y="267.9000047445297" width="0.5699999928474426" height="1.2200000286102295" transform="rotate(-90 -107.97999572753905,142.93000793457034) " id="svg_214"/><rect class="cls-11" x="7.34999942779541" y="265.8899949789047" width="0.5699999928474426" height="1.2200000286102295" transform="rotate(-90 -106.97000122070311,141.91999816894534) " id="svg_215"/><rect class="cls-11" x="8.359999656677246" y="263.87999284267426" width="0.5699999928474426" height="1.2200000286102295" transform="rotate(-90 -105.95999908447264,140.91999816894534) " id="svg_216"/><rect class="cls-11" x="9.369999885559082" y="261.85999619960785" width="0.5699999928474426" height="1.2200000286102295" transform="rotate(-90 -104.94999694824217,139.9100036621094) " id="svg_217"/><rect class="cls-11" x="10.369999885559082" y="259.8500016927719" width="0.5699999928474426" height="1.2200000286102295" transform="rotate(-90 -103.94999694824217,138.90000915527347) " id="svg_218"/><rect class="cls-11" x="13.399999618530273" y="253.7999986410141" width="0.5699999928474426" height="1.2200000286102295" transform="rotate(-90 -100.9199981689453,135.88000488281253) " id="svg_219"/><rect class="cls-11" x="12.389999866485596" y="255.8199952840805" width="0.5699999928474426" height="1.2200000286102295" transform="rotate(-90 -101.93000030517577,136.88999938964847) " id="svg_220"/><rect class="cls-11" x="11.37999963760376" y="257.829997420311" width="0.5699999928474426" height="1.2200000286102295" transform="rotate(-90 -102.94000244140624,137.88999938964847) " id="svg_221"/><rect class="cls-11" x="14.399999618530273" y="251.79000413417816" width="0.5699999928474426" height="1.2200000286102295" transform="rotate(-90 -99.9199981689453,134.8700103759766) " id="svg_222"/><rect class="cls-11" x="15.40999972820282" y="249.78000962734222" width="0.5699999928474426" height="1.2200000286102295" transform="rotate(-90 -98.91000366210936,133.8700103759766) " id="svg_223"/></g><g id="Layer_6" data-name="Layer 6" class=""><rect class="cls-11" x="32.8699951171875" y="17.750003218650818" width="0.5699999928474426" height="1.2200000286102295" id="svg_224"/><rect class="cls-11" x="33.8800048828125" y="17.750003218650818" width="0.5699999928474426" height="1.2200000286102295" id="svg_225"/><rect class="cls-11" x="34.88999938964844" y="17.750003218650818" width="0.5699999928474426" height="1.2200000286102295" id="svg_226"/><rect class="cls-11" x="35.899993896484375" y="17.750003218650818" width="0.5699999928474426" height="1.2200000286102295" id="svg_227"/><rect class="cls-11" x="36.899993896484375" y="17.750003218650818" width="0.5699999928474426" height="1.2200000286102295" id="svg_228"/><rect class="cls-11" x="37.910003662109375" y="17.750003218650818" width="0.5699999928474426" height="1.2200000286102295" id="svg_229"/><rect class="cls-11" x="40.92999267578125" y="17.750003218650818" width="0.5699999928474426" height="1.2200000286102295" id="svg_230"/><rect class="cls-11" x="39.91999816894531" y="17.750003218650818" width="0.5699999928474426" height="1.2200000286102295" id="svg_231"/><rect class="cls-11" x="38.91999816894531" y="17.750003218650818" width="0.5699999928474426" height="1.2200000286102295" id="svg_232"/><rect class="cls-11" x="41.94000244140625" y="17.750003218650818" width="0.5699999928474426" height="1.2200000286102295" id="svg_233"/><rect class="cls-11" x="42.94999694824219" y="17.750003218650818" width="0.5699999928474426" height="1.2200000286102295" id="svg_234"/><rect class="cls-11" x="32.8699951171875" y="29.619998335838318" width="0.5699999928474426" height="1.2200000286102295" id="svg_235"/><rect class="cls-11" x="33.8800048828125" y="29.619998335838318" width="0.5699999928474426" height="1.2200000286102295" id="svg_236"/><rect class="cls-11" x="34.88999938964844" y="29.619998335838318" width="0.5699999928474426" height="1.2200000286102295" id="svg_237"/><rect class="cls-11" x="35.899993896484375" y="29.619998335838318" width="0.5699999928474426" height="1.2200000286102295" id="svg_238"/><rect class="cls-11" x="36.899993896484375" y="29.619998335838318" width="0.5699999928474426" height="1.2200000286102295" id="svg_239"/><rect class="cls-11" x="37.910003662109375" y="29.619998335838318" width="0.5699999928474426" height="1.2200000286102295" id="svg_240"/><rect class="cls-11" x="40.92999267578125" y="29.619998335838318" width="0.5699999928474426" height="1.2200000286102295" id="svg_241"/><rect class="cls-11" x="39.91999816894531" y="29.619998335838318" width="0.5699999928474426" height="1.2200000286102295" id="svg_242"/><rect class="cls-11" x="38.91999816894531" y="29.619998335838318" width="0.5699999928474426" height="1.2200000286102295" id="svg_243"/><rect class="cls-11" x="41.94000244140625" y="29.619998335838318" width="0.5699999928474426" height="1.2200000286102295" id="svg_244"/><rect class="cls-11" x="42.94999694824219" y="29.619998335838318" width="0.5699999928474426" height="1.2200000286102295" id="svg_245"/><rect class="cls-11" x="57.62000274658203" y="296.5099900960922" width="0.5699999928474426" height="1.2200000286102295" transform="rotate(-90 -82.93000030517577,170.3499908447266) " id="svg_246"/><rect class="cls-11" x="58.63000297546387" y="294.4900087118149" width="0.5699999928474426" height="1.2200000286102295" transform="rotate(-90 -81.9199981689453,169.34001159667972) " id="svg_247"/><rect class="cls-11" x="59.63000297546387" y="292.4799989461899" width="0.5699999928474426" height="1.2200000286102295" transform="rotate(-90 -80.9199981689453,168.33000183105472) " id="svg_248"/><rect class="cls-11" x="60.6400032043457" y="290.4599870443344" width="0.5699999928474426" height="1.2200000286102295" transform="rotate(-90 -79.90999603271483,167.31999206542972) " id="svg_249"/><rect class="cls-11" x="61.65000343322754" y="288.44998490810394" width="0.5699999928474426" height="1.2200000286102295" transform="rotate(-90 -78.90000152587889,166.31999206542972) " id="svg_250"/><rect class="cls-11" x="62.660003662109375" y="286.43001115322113" width="0.5699999928474426" height="1.2200000286102295" transform="rotate(-90 -77.88999938964842,165.31001281738284) " id="svg_251"/><rect class="cls-11" x="65.68000221252441" y="280.3899873495102" width="0.5699999928474426" height="1.2200000286102295" transform="rotate(-90 -74.87000274658202,162.28999328613284) " id="svg_252"/><rect class="cls-11" x="64.67000389099121" y="282.40999925136566" width="0.5699999928474426" height="1.2200000286102295" transform="rotate(-90 -75.87999725341795,163.30000305175784) " id="svg_253"/><rect class="cls-11" x="63.660003662109375" y="284.42000138759613" width="0.5699999928474426" height="1.2200000286102295" transform="rotate(-90 -76.88999938964842,164.30000305175784) " id="svg_254"/><rect class="cls-11" x="66.68000221252441" y="278.37000596523285" width="0.5699999928474426" height="1.2200000286102295" transform="rotate(-90 -73.87000274658202,161.28001403808597) " id="svg_255"/><rect class="cls-11" x="67.69000244140625" y="276.35999619960785" width="0.5699999928474426" height="1.2200000286102295" transform="rotate(-90 -72.86000061035155,160.27000427246097) " id="svg_256"/><rect class="cls-11" x="33.949992656707764" y="284.49000108242035" width="0.5699999928474426" height="1.2200000286102295" transform="rotate(-90 -94.73000335693358,158.40000915527347) " id="svg_257"/><rect class="cls-11" x="34.949992656707764" y="282.4699968099594" width="0.5699999928474426" height="1.2200000286102295" transform="rotate(-90 -93.73000335693358,157.38999938964847) " id="svg_258"/><rect class="cls-11" x="35.9599928855896" y="280.450000166893" width="0.5699999928474426" height="1.2200000286102295" transform="rotate(-90 -92.72000122070311,156.38000488281253) " id="svg_259"/><rect class="cls-11" x="36.96999263763428" y="278.4300035238266" width="0.5699999928474426" height="1.2200000286102295" transform="rotate(-90 -91.70999908447264,155.3700103759766) " id="svg_260"/><rect class="cls-11" x="37.96999263763428" y="276.4300035238266" width="0.5699999928474426" height="1.2200000286102295" transform="rotate(-90 -90.70999908447264,154.3700103759766) " id="svg_261"/><rect class="cls-11" x="38.97999286651611" y="274.40999925136566" width="0.5699999928474426" height="1.2200000286102295" transform="rotate(-90 -89.69999694824217,153.3600006103516) " id="svg_262"/><rect class="cls-11" x="41.99999237060547" y="268.37000596523285" width="0.5699999928474426" height="1.2200000286102295" transform="rotate(-90 -86.68000030517577,150.34001159667972) " id="svg_263"/><rect class="cls-11" x="40.99999237060547" y="270.39000260829926" width="0.5699999928474426" height="1.2200000286102295" transform="rotate(-90 -87.68000030517577,151.35000610351565) " id="svg_264"/><rect class="cls-11" x="39.98999309539795" y="272.39000260829926" width="0.5699999928474426" height="1.2200000286102295" transform="rotate(-90 -88.69000244140624,152.35000610351565) " id="svg_265"/><rect class="cls-11" x="43.009992599487305" y="266.3499940633774" width="0.5699999928474426" height="1.2200000286102295" transform="rotate(-90 -85.6699981689453,149.33000183105472) " id="svg_266"/><rect class="cls-11" x="44.01999282836914" y="264.3300050497055" width="0.5699999928474426" height="1.2200000286102295" transform="rotate(-90 -84.65999603271483,148.32000732421878) " id="svg_267"/></g><g id="Layer_7" data-name="Layer 7" class=""><rect class="cls-11" x="18.529998779296875" y="31.60000169277191" width="0.5699999928474426" height="1.2200000286102295" id="svg_268"/><rect class="cls-11" x="19.540000915527344" y="31.60000169277191" width="0.5699999928474426" height="1.2200000286102295" id="svg_269"/><rect class="cls-11" x="20.550003051757812" y="31.60000169277191" width="0.5699999928474426" height="1.2200000286102295" id="svg_270"/><rect class="cls-11" x="21.550003051757812" y="31.60000169277191" width="0.5699999928474426" height="1.2200000286102295" id="svg_271"/><rect class="cls-11" x="22.55999755859375" y="31.60000169277191" width="0.5699999928474426" height="1.2200000286102295" id="svg_272"/><rect class="cls-11" x="23.56999969482422" y="31.60000169277191" width="0.5699999928474426" height="1.2200000286102295" id="svg_273"/><rect class="cls-11" x="26.589996337890625" y="31.60000169277191" width="0.5699999928474426" height="1.2200000286102295" id="svg_274"/><rect class="cls-11" x="25.580001831054688" y="31.60000169277191" width="0.5699999928474426" height="1.2200000286102295" id="svg_275"/><rect class="cls-11" x="24.56999969482422" y="31.60000169277191" width="0.5699999928474426" height="1.2200000286102295" id="svg_276"/><rect class="cls-11" x="27.599998474121094" y="31.60000169277191" width="0.5699999928474426" height="1.2200000286102295" id="svg_277"/><rect class="cls-11" x="28.599998474121094" y="31.60000169277191" width="0.5699999928474426" height="1.2200000286102295" id="svg_278"/><rect class="cls-11" x="18.529998779296875" y="43.46999680995941" width="0.5699999928474426" height="1.2200000286102295" id="svg_279"/><rect class="cls-11" x="19.540000915527344" y="43.46999680995941" width="0.5699999928474426" height="1.2200000286102295" id="svg_280"/><rect class="cls-11" x="20.550003051757812" y="43.46999680995941" width="0.5699999928474426" height="1.2200000286102295" id="svg_281"/><rect class="cls-11" x="21.550003051757812" y="43.46999680995941" width="0.5699999928474426" height="1.2200000286102295" id="svg_282"/><rect class="cls-11" x="22.55999755859375" y="43.46999680995941" width="0.5699999928474426" height="1.2200000286102295" id="svg_283"/><rect class="cls-11" x="23.56999969482422" y="43.46999680995941" width="0.5699999928474426" height="1.2200000286102295" id="svg_284"/><rect class="cls-11" x="26.589996337890625" y="43.46999680995941" width="0.5699999928474426" height="1.2200000286102295" id="svg_285"/><rect class="cls-11" x="25.580001831054688" y="43.46999680995941" width="0.5699999928474426" height="1.2200000286102295" id="svg_286"/><rect class="cls-11" x="24.56999969482422" y="43.46999680995941" width="0.5699999928474426" height="1.2200000286102295" id="svg_287"/><rect class="cls-11" x="27.599998474121094" y="43.46999680995941" width="0.5699999928474426" height="1.2200000286102295" id="svg_288"/><rect class="cls-11" x="28.599998474121094" y="43.46999680995941" width="0.5699999928474426" height="1.2200000286102295" id="svg_289"/><rect class="cls-11" x="15.089999198913574" y="309.8599809408188" width="0.5699999928474426" height="1.2200000286102295" transform="rotate(-90 -111.12000274658202,169.8499908447266) " id="svg_290"/><rect class="cls-11" x="16.089999198913574" y="307.84998643398285" width="0.5699999928474426" height="1.2200000286102295" transform="rotate(-90 -110.12000274658202,168.8499908447266) " id="svg_291"/><rect class="cls-11" x="17.09999942779541" y="305.840007185936" width="0.5699999928474426" height="1.2200000286102295" transform="rotate(-90 -109.11000061035155,167.84001159667972) " id="svg_292"/><rect class="cls-11" x="18.10999870300293" y="303.82000291347504" width="0.5699999928474426" height="1.2200000286102295" transform="rotate(-90 -108.09999847412108,166.83000183105472) " id="svg_293"/><rect class="cls-11" x="19.119998931884766" y="301.79998338222504" width="0.5699999928474426" height="1.2200000286102295" transform="rotate(-90 -107.08999633789061,165.81999206542972) " id="svg_294"/><rect class="cls-11" x="20.119998931884766" y="299.7899888753891" width="0.5699999928474426" height="1.2200000286102295" transform="rotate(-90 -106.08999633789061,164.81999206542972) " id="svg_295"/><rect class="cls-11" x="23.13999891281128" y="293.7499955892563" width="0.5699999928474426" height="1.2200000286102295" transform="rotate(-90 -103.0699996948242,161.80000305175784) " id="svg_296"/><rect class="cls-11" x="22.13999891281128" y="295.7600053548813" width="0.5699999928474426" height="1.2200000286102295" transform="rotate(-90 -104.0699996948242,162.80000305175784) " id="svg_297"/><rect class="cls-11" x="21.1299991607666" y="297.7800096273422" width="0.5699999928474426" height="1.2200000286102295" transform="rotate(-90 -105.08000183105467,163.81001281738284) " id="svg_298"/><rect class="cls-11" x="24.149999141693115" y="291.72999131679535" width="0.5699999928474426" height="1.2200000286102295" transform="rotate(-90 -102.05999755859374,160.78999328613284) " id="svg_299"/><rect class="cls-11" x="25.159998893737793" y="289.7200120687485" width="0.5699999928474426" height="1.2200000286102295" transform="rotate(-90 -101.0500030517578,159.78001403808597) " id="svg_300"/><rect class="cls-11" x="-8.599998474121094" y="297.840007185936" width="0.5699999928474426" height="1.2200000286102295" transform="rotate(-90 -122.93000030517577,157.90000915527347) " id="svg_301"/><rect class="cls-11" x="-7.589998245239258" y="295.829997420311" width="0.5699999928474426" height="1.2200000286102295" transform="rotate(-90 -121.9199981689453,156.90000915527347) " id="svg_302"/><rect class="cls-11" x="-6.579998016357422" y="293.80999314785004" width="0.5699999928474426" height="1.2200000286102295" transform="rotate(-90 -120.90999603271483,155.88999938964847) " id="svg_303"/><rect class="cls-11" x="-5.569997787475586" y="291.79000413417816" width="0.5699999928474426" height="1.2200000286102295" transform="rotate(-90 -119.90000152587889,154.88000488281253) " id="svg_304"/><rect class="cls-11" x="-4.569997787475586" y="289.7800096273422" width="0.5699999928474426" height="1.2200000286102295" transform="rotate(-90 -118.90000152587889,153.8700103759766) " id="svg_305"/><rect class="cls-11" x="-3.55999755859375" y="287.7699998617172" width="0.5699999928474426" height="1.2200000286102295" transform="rotate(-90 -117.88999938964842,152.8700103759766) " id="svg_306"/><rect class="cls-11" x="-0.5399990081787109" y="281.7300065755844" width="0.5699999928474426" height="1.2200000286102295" transform="rotate(-90 -114.87000274658202,149.85000610351565) " id="svg_307"/><rect class="cls-11" x="-1.549997329711914" y="283.74000108242035" width="0.5699999928474426" height="1.2200000286102295" transform="rotate(-90 -115.87999725341795,150.85000610351565) " id="svg_308"/><rect class="cls-11" x="-2.549997329711914" y="285.7499955892563" width="0.5699999928474426" height="1.2200000286102295" transform="rotate(-90 -116.87999725341795,151.8600006103516) " id="svg_309"/><rect class="cls-11" x="0.470001220703125" y="279.7100023031235" width="0.5699999928474426" height="1.2200000286102295" transform="rotate(-90 -113.86000061035155,148.84001159667972) " id="svg_310"/><rect class="cls-11" x="1.480001449584961" y="277.68999803066254" width="0.5699999928474426" height="1.2200000286102295" transform="rotate(-90 -112.84999847412108,147.83000183105472) " id="svg_311"/></g><g id="Layer_8" data-name="Layer 8" class=""><rect class="cls-11" x="32.8800048828125" y="31.60000169277191" width="0.5699999928474426" height="1.2200000286102295" id="svg_312"/><rect class="cls-11" x="33.88999938964844" y="31.60000169277191" width="0.5699999928474426" height="1.2200000286102295" id="svg_313"/><rect class="cls-11" x="34.899993896484375" y="31.60000169277191" width="0.5699999928474426" height="1.2200000286102295" id="svg_314"/><rect class="cls-11" x="35.910003662109375" y="31.60000169277191" width="0.5699999928474426" height="1.2200000286102295" id="svg_315"/><rect class="cls-11" x="36.910003662109375" y="31.60000169277191" width="0.5699999928474426" height="1.2200000286102295" id="svg_316"/><rect class="cls-11" x="37.91999816894531" y="31.60000169277191" width="0.5699999928474426" height="1.2200000286102295" id="svg_317"/><rect class="cls-11" x="40.94000244140625" y="31.60000169277191" width="0.5699999928474426" height="1.2200000286102295" id="svg_318"/><rect class="cls-11" x="39.92999267578125" y="31.60000169277191" width="0.5699999928474426" height="1.2200000286102295" id="svg_319"/><rect class="cls-11" x="38.92999267578125" y="31.60000169277191" width="0.5699999928474426" height="1.2200000286102295" id="svg_320"/><rect class="cls-11" x="41.94999694824219" y="31.60000169277191" width="0.5699999928474426" height="1.2200000286102295" id="svg_321"/><rect class="cls-11" x="42.96000671386719" y="31.60000169277191" width="0.5699999928474426" height="1.2200000286102295" id="svg_322"/><rect class="cls-11" x="32.8800048828125" y="43.46999680995941" width="0.5699999928474426" height="1.2200000286102295" id="svg_323"/><rect class="cls-11" x="33.88999938964844" y="43.46999680995941" width="0.5699999928474426" height="1.2200000286102295" id="svg_324"/><rect class="cls-11" x="34.899993896484375" y="43.46999680995941" width="0.5699999928474426" height="1.2200000286102295" id="svg_325"/><rect class="cls-11" x="35.910003662109375" y="43.46999680995941" width="0.5699999928474426" height="1.2200000286102295" id="svg_326"/><rect class="cls-11" x="36.910003662109375" y="43.46999680995941" width="0.5699999928474426" height="1.2200000286102295" id="svg_327"/><rect class="cls-11" x="37.91999816894531" y="43.46999680995941" width="0.5699999928474426" height="1.2200000286102295" id="svg_328"/><rect class="cls-11" x="40.94000244140625" y="43.46999680995941" width="0.5699999928474426" height="1.2200000286102295" id="svg_329"/><rect class="cls-11" x="39.92999267578125" y="43.46999680995941" width="0.5699999928474426" height="1.2200000286102295" id="svg_330"/><rect class="cls-11" x="38.92999267578125" y="43.46999680995941" width="0.5699999928474426" height="1.2200000286102295" id="svg_331"/><rect class="cls-11" x="41.94999694824219" y="43.46999680995941" width="0.5699999928474426" height="1.2200000286102295" id="svg_332"/><rect class="cls-11" x="42.96000671386719" y="43.46999680995941" width="0.5699999928474426" height="1.2200000286102295" id="svg_333"/><rect class="cls-11" x="43.800007328391075" y="324.2199968099594" width="0.5699999928474426" height="1.2200000286102295" transform="rotate(-90 -96.76999664306639,184.21000671386722) " id="svg_334"/><rect class="cls-11" x="44.81000733375549" y="322.1999925374985" width="0.5699999928474426" height="1.2200000286102295" transform="rotate(-90 -95.76000213623045,183.19999694824222) " id="svg_335"/><rect class="cls-11" x="45.81000733375549" y="320.1900132894516" width="0.5699999928474426" height="1.2200000286102295" transform="rotate(-90 -94.76000213623045,182.19001770019534) " id="svg_336"/><rect class="cls-11" x="46.82000732421875" y="318.18001878261566" width="0.5699999928474426" height="1.2200000286102295" transform="rotate(-90 -93.74999999999999,181.19001770019534) " id="svg_337"/><rect class="cls-11" x="47.830007553100586" y="316.15999925136566" width="0.5699999928474426" height="1.2200000286102295" transform="rotate(-90 -92.73999786376952,180.18000793457034) " id="svg_338"/><rect class="cls-11" x="48.840007305145264" y="314.1399949789047" width="0.5699999928474426" height="1.2200000286102295" transform="rotate(-90 -91.73000335693358,179.16999816894534) " id="svg_339"/><rect class="cls-11" x="51.86000728607178" y="308.1000016927719" width="0.5699999928474426" height="1.2200000286102295" transform="rotate(-90 -88.70999908447264,176.15000915527347) " id="svg_340"/><rect class="cls-11" x="50.8500075340271" y="310.1200212240219" width="0.5699999928474426" height="1.2200000286102295" transform="rotate(-90 -89.72000122070311,177.16001892089847) " id="svg_341"/><rect class="cls-11" x="49.840007305145264" y="312.13001573085785" width="0.5699999928474426" height="1.2200000286102295" transform="rotate(-90 -90.73000335693358,178.16001892089847) " id="svg_342"/><rect class="cls-11" x="52.87000751495361" y="306.079997420311" width="0.5699999928474426" height="1.2200000286102295" transform="rotate(-90 -87.69999694824217,175.13999938964847) " id="svg_343"/><rect class="cls-11" x="53.87000751495361" y="304.0700181722641" width="0.5699999928474426" height="1.2200000286102295" transform="rotate(-90 -86.69999694824217,174.1300201416016) " id="svg_344"/><rect class="cls-11" x="20.12000274658203" y="312.1999925374985" width="0.5699999928474426" height="1.2200000286102295" transform="rotate(-90 -108.5699996948242,172.25999450683597) " id="svg_345"/><rect class="cls-11" x="21.12000274658203" y="310.1800035238266" width="0.5699999928474426" height="1.2200000286102295" transform="rotate(-90 -107.5699996948242,171.2500152587891) " id="svg_346"/><rect class="cls-11" x="22.13000202178955" y="308.15999925136566" width="0.5699999928474426" height="1.2200000286102295" transform="rotate(-90 -106.55999755859374,170.2400054931641) " id="svg_347"/><rect class="cls-11" x="23.140002250671387" y="306.1399949789047" width="0.5699999928474426" height="1.2200000286102295" transform="rotate(-90 -105.5500030517578,169.2299957275391) " id="svg_348"/><rect class="cls-11" x="24.150002479553223" y="304.1399949789047" width="0.5699999928474426" height="1.2200000286102295" transform="rotate(-90 -104.54000091552733,168.2299957275391) " id="svg_349"/><rect class="cls-11" x="25.150002479553223" y="302.12000596523285" width="0.5699999928474426" height="1.2200000286102295" transform="rotate(-90 -103.54000091552733,167.22001647949222) " id="svg_350"/><rect class="cls-11" x="28.170002460479736" y="296.079997420311" width="0.5699999928474426" height="1.2200000286102295" transform="rotate(-90 -100.51999664306639,164.19999694824222) " id="svg_351"/><rect class="cls-11" x="27.170002460479736" y="298.1000016927719" width="0.5699999928474426" height="1.2200000286102295" transform="rotate(-90 -101.51999664306639,165.21000671386722) " id="svg_352"/><rect class="cls-11" x="26.1600022315979" y="300.1000016927719" width="0.5699999928474426" height="1.2200000286102295" transform="rotate(-90 -102.52999877929686,166.21000671386722) " id="svg_353"/><rect class="cls-11" x="29.180002450942993" y="294.0600084066391" width="0.5699999928474426" height="1.2200000286102295" transform="rotate(-90 -99.51000213623045,163.19001770019534) " id="svg_354"/><rect class="cls-11" x="30.19000244140625" y="292.04000413417816" width="0.5699999928474426" height="1.2200000286102295" transform="rotate(-90 -98.49999999999999,162.18000793457034) " id="svg_355"/></g><g id="Layer_9" data-name="Layer 9" class=""><text class="cls-12" y="25.65999925136566" x="19.80999755859375" id="svg_356">Let<tspan class="cls-13" x="25.189997558593745" y="25.65999925136566" id="svg_357"></tspan><tspan class="cls-14" x="25.599997558593756" y="25.65999925136566" id="svg_358">s</tspan></text><text class="cls-12" y="25.759997725486755" x="34.160003662109375" id="svg_359">HPC</text><text class="cls-15" y="38.60999619960785" x="20.269996643066406" id="svg_360">sync.</text></g><g id="Layer_10" data-name="Layer 10" class=""><polyline class="cls-16" points="42.100006103515625,42.63000047206879 33.8800048828125,42.63000047206879 33.8800048828125,34.29000413417816 33.8800048828125,33.93999803066254 " id="svg_361"/><polyline class="cls-17" points="33.8699951171875,41.99000108242035 37.05999755859375,41.99000108242035 39.49000549316406,41.340007185935974 40.94000244140625,39.60999619960785 41.50999450683594,34.74999558925629 " id="svg_362"/><polyline class="cls-17" points="33.8699951171875,40.340007185935974 37.779998779296875,40.340007185935974 39.91999816894531,39.0499986410141 40.94000244140625,34.74999558925629 " id="svg_363"/></g><g id="Layer_11" data-name="Layer 11" class=""><circle class="cls-11" cx="37.69000244140625" cy="40.340007185935974" r="0.25" id="svg_364"/><circle class="cls-11" cx="39.92999267578125" cy="38.96999680995941" r="0.25" id="svg_365"/><circle class="cls-11" cx="37.149993896484375" cy="41.99000108242035" r="0.25" id="svg_366"/><circle class="cls-11" cx="39.49000549316406" cy="41.340007185935974" r="0.25" id="svg_367"/><circle class="cls-11" cx="40.94000244140625" cy="39.54000413417816" r="0.25" id="svg_368"/></g><g id="Layer_12" data-name="Layer 12" class=""><polygon class="cls-11" points="33.8800048828125,33.60999619960785 33.50999450683594,34.26000535488129 34.25999450683594,34.26000535488129 33.8800048828125,33.60999619960785 " id="svg_369"/><polygon class="cls-11" points="41.899993896484375,42.26000535488129 41.899993896484375,43.01000535488129 42.55000305175781,42.63000047206879 41.899993896484375,42.26000535488129 " id="svg_370"/></g><g id="Layer_13" data-name="Layer 13" class=""><polyline class="cls-10" points="18.419998168945312,9.570002913475037 18.419998168945312,5.740001082420349 20.519996643066406,3.6400026082992554 20.519996643066406,0.07000292092561722 " id="svg_371"/><polyline class="cls-10" points="19.730003356933594,9.570002913475037 19.730003356933594,6.240001082420349 21.94000244140625,4.030001997947693 21.94000244140625,0.07000292092561722 " id="svg_372"/><line class="cls-10" x1="23.01000213623047" y1="0.07000291347503662" x2="23.01000213623047" y2="9.570002913475037" id="svg_373"/><polyline class="cls-10" points="36.25999450683594,0.07000292092561722 36.25999450683594,2.8200029134750366 39.22999572753906,5.790004134178162 39.22999572753906,9.570002913475037 " id="svg_374"/><polyline class="cls-10" points="37.25999450683594,0.07000292092561722 37.25999450683594,2.240001082420349 40.25999450683594,5.240001082420349 40.25999450683594,9.570002913475037 " id="svg_375"/><polyline class="cls-10" points="38.25,0.07000292092561722 38.25,1.3200029134750366 41.3699951171875,4.439998030662537 41.3699951171875,9.570002913475037 " id="svg_376"/><polyline class="cls-10" points="50.75,19.15999925136566 53.41999816894531,19.15999925136566 55.88999938964844,21.630000472068787 61.44000244140625,21.630000472068787 " id="svg_377"/><line class="cls-10" x1="61.44000244140625" y1="22.630000472068787" x2="50.75" y2="22.630000472068787" id="svg_378"/><line class="cls-10" x1="61.44000244140625" y1="23.72999894618988" x2="50.75" y2="23.72999894618988" id="svg_379"/><line class="cls-10" x1="61.44000244140625" y1="24.90999925136566" x2="50.75" y2="24.90999925136566" id="svg_380"/><polyline class="cls-10" points="50.75,32.82000291347504 53.75,32.82000291347504 58,35.37000596523285 61.44000244140625,35.37000596523285 " id="svg_381"/><polyline class="cls-10" points="61.44000244140625,36.579997420310974 57.58000183105469,36.579997420310974 54,34.65999925136566 50.75,34.65999925136566 " id="svg_382"/><line class="cls-10" x1="61.44000244140625" y1="38.090007185935974" x2="50.75" y2="38.090007185935974" id="svg_383"/><polyline class="cls-10" points="61.44000244140625,39.579997420310974 57.83000183105469,39.579997420310974 54.33000183105469,41.579997420310974 50.75,41.579997420310974 " id="svg_384"/><polyline class="cls-10" points="61.44000244140625,40.65999925136566 57.91999816894531,40.65999925136566 54.33000183105469,43.019999861717224 50.75,43.019999861717224 " id="svg_385"/><line class="cls-10" x1="45.08000183105469" y1="51.74000108242035" x2="45.08000183105469" y2="61.1800035238266" id="svg_386"/><line class="cls-10" x1="43.86000061035156" y1="51.74000108242035" x2="43.86000061035156" y2="61.1800035238266" id="svg_387"/><line class="cls-10" x1="42.529998779296875" y1="51.74000108242035" x2="42.529998779296875" y2="61.1800035238266" id="svg_388"/><polyline class="cls-10" points="41.25999450683594,61.1800035238266 41.25999450683594,59.15999925136566 38.25,54.74000108242035 38.25,51.74000108242035 " id="svg_389"/><polyline class="cls-10" points="39.97999572753906,61.1800035238266 39.97999572753906,59.57000291347504 36.970001220703125,55.07000291347504 36.970001220703125,51.74000108242035 " id="svg_390"/><polyline class="cls-10" points="16.419998168945312,51.74000108242035 16.419998168945312,55.82000291347504 20.459999084472656,58.49000108242035 20.459999084472656,61.1800035238266 " id="svg_391"/><polyline class="cls-10" points="21.290000915527344,61.1800035238266 21.290000915527344,57.49000108242035 17.80999755859375,55.090007185935974 17.81999969482422,51.74000108242035 " id="svg_392"/><line class="cls-10" x1="22.290000915527344" y1="61.1800035238266" x2="22.290000915527344" y2="51.74000108242035" id="svg_393"/><polyline class="cls-10" points="23.279998779296875,61.1800035238266 23.279998779296875,57.24000108242035 26.01000213623047,54.82000291347504 26.01000213623047,51.74000108242035 " id="svg_394"/><polyline class="cls-10" points="24.279998779296875,61.1800035238266 24.279998779296875,57.82000291347504 27.290000915527344,55.07000291347504 27.290000915527344,51.74000108242035 " id="svg_395"/><polyline class="cls-10" points="25.290000915527344,61.1800035238266 25.290000915527344,58.24000108242035 28.720001220703125,55.24000108242035 28.720001220703125,51.74000108242035 " id="svg_396"/><polyline class="cls-10" points="0,39.829997420310974 3.25,39.829997420310974 6.0800018310546875,42.37000596523285 10.830001831054688,42.37000596523285 " id="svg_397"/><polyline class="cls-10" points="0,41.090007185935974 2.9199981689453125,41.090007185935974 6.0800018310546875,44.090007185935974 10.830001831054688,44.090007185935974 " id="svg_398"/><line class="cls-10" x1="0" y1="38.77999436855316" x2="10.830001831054688" y2="38.77999436855316" id="svg_399"/><line class="cls-10" x1="0" y1="37.65999925136566" x2="10.830001831054688" y2="37.65999925136566" id="svg_400"/><line class="cls-10" x1="0" y1="36.579997420310974" x2="10.830001831054688" y2="36.579997420310974" id="svg_401"/><line class="cls-10" x1="0" y1="26.339999556541443" x2="10.830001831054688" y2="26.339999556541443" id="svg_402"/><line class="cls-10" x1="0" y1="25.17000138759613" x2="10.830001831054688" y2="25.17000138759613" id="svg_403"/><polyline class="cls-10" points="0,24.24000108242035 2.9199981689453125,24.24000108242035 6.4199981689453125,21.17000138759613 10.830001831054688,21.17000138759613 " id="svg_404"/><polyline class="cls-10" points="0,22.90999925136566 2.5,22.90999925136566 6.25,19.519999861717224 10.830001831054688,19.519999861717224 " id="svg_405"/></g><g id="Layer_15" data-name="Layer 15" class=""><path class="cls-11" d="M47.46000000000001,44.20000108242036 a0.5,0.5 0 0 0 0,-1 A0.5,0.5 0 0 0 47.46000000000001,44.20000108242036 z" id="svg_406"/><path class="cls-11" d="M47.46000000000001,42.74000108242035 a0.5,0.5 0 0 0 0,-1 A0.5,0.5 0 0 0 47.46000000000001,42.74000108242035 z" id="svg_407"/><path class="cls-11" d="M47.46000000000001,41.20000108242036 a0.5,0.5 0 0 0 0,-1 A0.5,0.5 0 0 0 47.46000000000001,41.20000108242036 z" id="svg_408"/><path class="cls-11" d="M47.46000000000001,39.74000108242035 a0.5,0.5 0 0 0 0,-1 A0.5,0.5 0 0 0 47.46000000000001,39.74000108242035 z" id="svg_409"/><path class="cls-11" d="M47.46000000000001,38.20000108242036 a0.5,0.5 0 0 0 0,-1 A0.5,0.5 0 0 0 47.46000000000001,38.20000108242036 z" id="svg_410"/><path class="cls-11" d="M47.47999999999999,36.74000108242035 a0.5,0.5 0 0 0 0,-1 A0.5,0.5 0 0 0 47.47999999999999,36.74000108242035 z" id="svg_411"/><path class="cls-11" d="M47.5,35.24000108242035 a0.5,0.5 0 0 0 0,-1 a0.5,0.5 0 0 0 0,1 z" id="svg_412"/><path class="cls-11" d="M47.5,33.74000108242035 a0.5,0.5 0 0 0 0,-1 a0.5,0.5 0 0 0 0,1 z" id="svg_413"/><path class="cls-11" d="M47.5,32.24000108242035 a0.5,0.5 0 0 0 0,-1 a0.5,0.5 0 0 0 0,1 z" id="svg_414"/><path class="cls-11" d="M47.5,30.74000108242035 a0.5,0.5 0 0 0 0,-1 a0.5,0.5 0 0 0 0,1 z" id="svg_415"/><path class="cls-11" d="M47.5,29.24000108242035 a0.5,0.5 0 0 0 0,-1 a0.5,0.5 0 0 0 0,1 z" id="svg_416"/><path class="cls-11" d="M47.5,27.74000108242035 a0.5,0.5 0 0 0 0,-1 a0.5,0.5 0 0 0 0,1 z" id="svg_417"/><path class="cls-11" d="M47.5,26.24000108242035 a0.5,0.5 0 0 0 0,-1 a0.5,0.5 0 0 0 0,1 z" id="svg_418"/><path class="cls-11" d="M47.5,24.74000108242035 a0.5,0.5 0 0 0 0,-1 a0.5,0.5 0 0 0 0,1 z" id="svg_419"/><path class="cls-11" d="M47.5,23.24000108242035 a0.5,0.5 0 0 0 0,-1 a0.5,0.5 0 0 0 0,1 z" id="svg_420"/><path class="cls-11" d="M47.5,21.74000108242035 a0.5,0.5 0 0 0 0,-1 a0.5,0.5 0 0 0 0,1 z" id="svg_421"/><path class="cls-11" d="M47.5,20.24000108242035 a0.5,0.5 0 0 0 0,-1 a0.5,0.5 0 0 0 0,1 z" id="svg_422"/><path class="cls-11" d="M47.5,18.74000108242035 a0.5,0.5 0 0 0 0,-1 a0.5,0.5 0 0 0 0,1 z" id="svg_423"/><path class="cls-11" d="M47.5,17.24000108242035 a0.5,0.5 0 0 0 0,-1 a0.5,0.5 0 0 0 0,1 z" id="svg_424"/><path class="cls-11" d="M49,43.74000108242035 a0.5,0.5 0 0 0 0,-1 a0.5,0.5 0 0 0 0,1 z" id="svg_425"/><path class="cls-11" d="M49,42.24000108242035 a0.5,0.5 0 0 0 0,-1 a0.5,0.5 0 0 0 0,1 z" id="svg_426"/><path class="cls-11" d="M49,40.74000108242035 a0.5,0.5 0 0 0 0,-1 a0.5,0.5 0 0 0 0,1 z" id="svg_427"/><path class="cls-11" d="M49,39.24000108242035 a0.5,0.5 0 0 0 0,-1 a0.5,0.5 0 0 0 0,1 z" id="svg_428"/><path class="cls-11" d="M49,37.74000108242035 a0.5,0.5 0 0 0 0,-1 a0.5,0.5 0 0 0 0,1 z" id="svg_429"/><path class="cls-11" d="M49,36.24000108242035 a0.5,0.5 0 0 0 0,-1 a0.5,0.5 0 0 0 0,1 z" id="svg_430"/><path class="cls-11" d="M49,34.74000108242035 a0.5,0.5 0 0 0 0,-1 a0.5,0.5 0 0 0 0,1 z" id="svg_431"/><path class="cls-11" d="M49,33.24000108242035 a0.5,0.5 0 0 0 0,-1 a0.5,0.5 0 0 0 0,1 z" id="svg_432"/><path class="cls-11" d="M49,31.74000108242035 a0.5,0.5 0 0 0 0,-1 a0.5,0.5 0 0 0 0,1 z" id="svg_433"/><path class="cls-11" d="M49,30.24000108242035 a0.5,0.5 0 0 0 0,-1 a0.5,0.5 0 0 0 0,1 z" id="svg_434"/><path class="cls-11" d="M49,28.74000108242035 a0.5,0.5 0 0 0 0,-1 a0.5,0.5 0 0 0 0,1 z" id="svg_435"/><path class="cls-11" d="M49,27.24000108242035 a0.5,0.5 0 0 0 0,-1 a0.5,0.5 0 0 0 0,1 z" id="svg_436"/><path class="cls-11" d="M49,25.74000108242035 a0.5,0.5 0 0 0 0,-1 a0.5,0.5 0 0 0 0,1 z" id="svg_437"/><path class="cls-11" d="M49,24.24000108242035 a0.5,0.5 0 0 0 0,-1 a0.5,0.5 0 0 0 0,1 z" id="svg_438"/><path class="cls-11" d="M49,22.74000108242035 a0.5,0.5 0 0 0 0,-1 a0.5,0.5 0 0 0 0,1 z" id="svg_439"/><path class="cls-11" d="M49,21.24000108242035 a0.5,0.5 0 0 0 0,-1 a0.5,0.5 0 0 0 0,1 z" id="svg_440"/><path class="cls-11" d="M49,19.74000108242035 a0.5,0.5 0 0 0 0,-1 a0.5,0.5 0 0 0 0,1 z" id="svg_441"/><path class="cls-11" d="M49,18.24000108242035 a0.5,0.5 0 0 0 0,-1 a0.5,0.5 0 0 0 0,1 z" id="svg_442"/><path class="cls-11" d="M44.46000000000001,13.280001082420355 a0.5,0.5 0 0 0 -1,0 A0.5,0.5 0 0 0 44.46000000000001,13.280001082420355 z" id="svg_443"/><path class="cls-11" d="M43,13.280001082420355 a0.5,0.5 0 0 0 -1,0 A0.5,0.5 0 0 0 43,13.280001082420355 z" id="svg_444"/><path class="cls-11" d="M41.46000000000001,13.280001082420355 a0.5,0.5 0 0 0 -1,0 A0.5,0.5 0 0 0 41.46000000000001,13.280001082420355 z" id="svg_445"/><path class="cls-11" d="M40,13.280001082420355 a0.5,0.5 0 0 0 -1,0 A0.5,0.5 0 0 0 40,13.280001082420355 z" id="svg_446"/><path class="cls-11" d="M38.46000000000001,13.280001082420355 a0.5,0.5 0 0 0 -1,0 A0.5,0.5 0 0 0 38.46000000000001,13.280001082420355 z" id="svg_447"/><path class="cls-11" d="M37,13.260001082420345 a0.5,0.5 0 0 0 -1,0 A0.5,0.5 0 0 0 37,13.260001082420345 z" id="svg_448"/><path class="cls-11" d="M35,13.74000108242035 a0.5,0.5 0 0 0 0,-1 a0.5,0.5 0 0 0 0,1 z" id="svg_449"/><path class="cls-11" d="M33.5,13.74000108242035 a0.5,0.5 0 0 0 0,-1 a0.5,0.5 0 0 0 0,1 z" id="svg_450"/><path class="cls-11" d="M32,13.74000108242035 a0.5,0.5 0 0 0 0,-1 a0.5,0.5 0 0 0 0,1 z" id="svg_451"/><path class="cls-11" d="M30.5,13.74000108242035 a0.5,0.5 0 0 0 0,-1 a0.5,0.5 0 0 0 0,1 z" id="svg_452"/><path class="cls-11" d="M29,13.74000108242035 a0.5,0.5 0 0 0 0,-1 a0.5,0.5 0 0 0 0,1 z" id="svg_453"/><path class="cls-11" d="M27.5,13.74000108242035 a0.5,0.5 0 0 0 0,-1 a0.5,0.5 0 0 0 0,1 z" id="svg_454"/><path class="cls-11" d="M26,13.74000108242035 a0.5,0.5 0 0 0 0,-1 a0.5,0.5 0 0 0 0,1 z" id="svg_455"/><path class="cls-11" d="M24.5,13.74000108242035 a0.5,0.5 0 0 0 0,-1 a0.5,0.5 0 0 0 0,1 z" id="svg_456"/><path class="cls-11" d="M23,13.74000108242035 a0.5,0.5 0 0 0 0,-1 a0.5,0.5 0 0 0 0,1 z" id="svg_457"/><path class="cls-11" d="M21.5,13.74000108242035 a0.5,0.5 0 0 0 0,-1 a0.5,0.5 0 0 0 0,1 z" id="svg_458"/><path class="cls-11" d="M20,13.74000108242035 a0.5,0.5 0 0 0 0,-1 a0.5,0.5 0 0 0 0,1 z" id="svg_459"/><path class="cls-11" d="M18.5,13.74000108242035 a0.5,0.5 0 0 0 0,-1 a0.5,0.5 0 0 0 0,1 z" id="svg_460"/><path class="cls-11" d="M17,13.74000108242035 a0.5,0.5 0 0 0 0,-1 a0.5,0.5 0 0 0 0,1 z" id="svg_461"/><path class="cls-11" d="M43.5,12.24000108242035 a0.5,0.5 0 0 0 0,-1 a0.5,0.5 0 0 0 0,1 z" id="svg_462"/><path class="cls-11" d="M42,12.24000108242035 a0.5,0.5 0 0 0 0,-1 a0.5,0.5 0 0 0 0,1 z" id="svg_463"/><path class="cls-11" d="M40.5,12.24000108242035 a0.5,0.5 0 0 0 0,-1 a0.5,0.5 0 0 0 0,1 z" id="svg_464"/><path class="cls-11" d="M39,12.24000108242035 a0.5,0.5 0 0 0 0,-1 a0.5,0.5 0 0 0 0,1 z" id="svg_465"/><path class="cls-11" d="M37.5,12.24000108242035 a0.5,0.5 0 0 0 0,-1 a0.5,0.5 0 0 0 0,1 z" id="svg_466"/><path class="cls-11" d="M36,12.24000108242035 a0.5,0.5 0 0 0 0,-1 a0.5,0.5 0 0 0 0,1 z" id="svg_467"/><path class="cls-11" d="M34.5,12.24000108242035 a0.5,0.5 0 0 0 0,-1 a0.5,0.5 0 0 0 0,1 z" id="svg_468"/><path class="cls-11" d="M33,12.24000108242035 a0.5,0.5 0 0 0 0,-1 a0.5,0.5 0 0 0 0,1 z" id="svg_469"/><path class="cls-11" d="M31.5,12.24000108242035 a0.5,0.5 0 0 0 0,-1 a0.5,0.5 0 0 0 0,1 z" id="svg_470"/><path class="cls-11" d="M30,12.24000108242035 a0.5,0.5 0 0 0 0,-1 a0.5,0.5 0 0 0 0,1 z" id="svg_471"/><path class="cls-11" d="M28.5,12.24000108242035 a0.5,0.5 0 0 0 0,-1 a0.5,0.5 0 0 0 0,1 z" id="svg_472"/><path class="cls-11" d="M27,12.24000108242035 a0.5,0.5 0 0 0 0,-1 a0.5,0.5 0 0 0 0,1 z" id="svg_473"/><path class="cls-11" d="M25.5,12.24000108242035 a0.5,0.5 0 0 0 0,-1 a0.5,0.5 0 0 0 0,1 z" id="svg_474"/><path class="cls-11" d="M24,12.24000108242035 a0.5,0.5 0 0 0 0,-1 a0.5,0.5 0 0 0 0,1 z" id="svg_475"/><path class="cls-11" d="M22.5,12.24000108242035 a0.5,0.5 0 0 0 0,-1 a0.5,0.5 0 0 0 0,1 z" id="svg_476"/><path class="cls-11" d="M21,12.24000108242035 a0.5,0.5 0 0 0 0,-1 a0.5,0.5 0 0 0 0,1 z" id="svg_477"/><path class="cls-11" d="M19.5,12.24000108242035 a0.5,0.5 0 0 0 0,-1 a0.5,0.5 0 0 0 0,1 z" id="svg_478"/><path class="cls-11" d="M18,12.24000108242035 a0.5,0.5 0 0 0 0,-1 a0.5,0.5 0 0 0 0,1 z" id="svg_479"/></g><g id="Layer_16" data-name="Layer 16" class=""><path class="cls-11" d="M44.46000000000001,47.74000108242035 a0.5,0.5 0 0 1 -1,0 A0.5,0.5 0 0 1 44.46000000000001,47.74000108242035 z" id="svg_480"/><path class="cls-11" d="M43,47.74000108242035 a0.5,0.5 0 0 1 -1,0 A0.5,0.5 0 0 1 43,47.74000108242035 z" id="svg_481"/><path class="cls-11" d="M41.46000000000001,47.74000108242035 a0.5,0.5 0 0 1 -1,0 A0.5,0.5 0 0 1 41.46000000000001,47.74000108242035 z" id="svg_482"/><path class="cls-11" d="M40,47.74000108242035 a0.5,0.5 0 0 1 -1,0 A0.5,0.5 0 0 1 40,47.74000108242035 z" id="svg_483"/><path class="cls-11" d="M38.46000000000001,47.74000108242035 a0.5,0.5 0 0 1 -1,0 A0.5,0.5 0 0 1 38.46000000000001,47.74000108242035 z" id="svg_484"/><path class="cls-11" d="M37,47.74000108242035 a0.5,0.5 0 0 1 -1,0 A0.5,0.5 0 0 1 37,47.74000108242035 z" id="svg_485"/><path class="cls-11" d="M35,48.24000108242035 a0.5,0.5 0 0 0 0,-1 a0.5,0.5 0 0 0 0,1 z" id="svg_486"/><path class="cls-11" d="M33.5,48.24000108242035 a0.5,0.5 0 0 0 0,-1 a0.5,0.5 0 0 0 0,1 z" id="svg_487"/><path class="cls-11" d="M32,48.24000108242035 a0.5,0.5 0 0 0 0,-1 a0.5,0.5 0 0 0 0,1 z" id="svg_488"/><path class="cls-11" d="M30.5,48.24000108242035 a0.5,0.5 0 0 0 0,-1 a0.5,0.5 0 0 0 0,1 z" id="svg_489"/><path class="cls-11" d="M29,48.24000108242035 a0.5,0.5 0 0 0 0,-1 a0.5,0.5 0 0 0 0,1 z" id="svg_490"/><path class="cls-11" d="M27.5,48.24000108242035 a0.5,0.5 0 0 0 0,-1 a0.5,0.5 0 0 0 0,1 z" id="svg_491"/><path class="cls-11" d="M26,48.24000108242035 a0.5,0.5 0 0 0 0,-1 a0.5,0.5 0 0 0 0,1 z" id="svg_492"/><path class="cls-11" d="M24.5,48.24000108242035 a0.5,0.5 0 0 0 0,-1 a0.5,0.5 0 0 0 0,1 z" id="svg_493"/><path class="cls-11" d="M23,48.24000108242035 a0.5,0.5 0 0 0 0,-1 a0.5,0.5 0 0 0 0,1 z" id="svg_494"/><path class="cls-11" d="M21.5,48.24000108242035 a0.5,0.5 0 0 0 0,-1 a0.5,0.5 0 0 0 0,1 z" id="svg_495"/><path class="cls-11" d="M20,48.24000108242035 a0.5,0.5 0 0 0 0,-1 a0.5,0.5 0 0 0 0,1 z" id="svg_496"/><path class="cls-11" d="M18.5,48.24000108242035 a0.5,0.5 0 0 0 0,-1 a0.5,0.5 0 0 0 0,1 z" id="svg_497"/><path class="cls-11" d="M17,48.24000108242035 a0.5,0.5 0 0 0 0,-1 a0.5,0.5 0 0 0 0,1 z" id="svg_498"/><path class="cls-11" d="M43.5,49.74000108242035 a0.5,0.5 0 0 0 0,-1 a0.5,0.5 0 0 0 0,1 z" id="svg_499"/><path class="cls-11" d="M42,49.74000108242035 a0.5,0.5 0 0 0 0,-1 a0.5,0.5 0 0 0 0,1 z" id="svg_500"/><path class="cls-11" d="M40.5,49.74000108242035 a0.5,0.5 0 0 0 0,-1 a0.5,0.5 0 0 0 0,1 z" id="svg_501"/><path class="cls-11" d="M39,49.74000108242035 a0.5,0.5 0 0 0 0,-1 a0.5,0.5 0 0 0 0,1 z" id="svg_502"/><path class="cls-11" d="M37.5,49.74000108242035 a0.5,0.5 0 0 0 0,-1 a0.5,0.5 0 0 0 0,1 z" id="svg_503"/><path class="cls-11" d="M36,49.74000108242035 a0.5,0.5 0 0 0 0,-1 a0.5,0.5 0 0 0 0,1 z" id="svg_504"/><path class="cls-11" d="M34.5,49.74000108242035 a0.5,0.5 0 0 0 0,-1 a0.5,0.5 0 0 0 0,1 z" id="svg_505"/><path class="cls-11" d="M33,49.74000108242035 a0.5,0.5 0 0 0 0,-1 a0.5,0.5 0 0 0 0,1 z" id="svg_506"/><path class="cls-11" d="M31.5,49.74000108242035 a0.5,0.5 0 0 0 0,-1 a0.5,0.5 0 0 0 0,1 z" id="svg_507"/><path class="cls-11" d="M30,49.74000108242035 a0.5,0.5 0 0 0 0,-1 a0.5,0.5 0 0 0 0,1 z" id="svg_508"/><path class="cls-11" d="M28.5,49.74000108242035 a0.5,0.5 0 0 0 0,-1 a0.5,0.5 0 0 0 0,1 z" id="svg_509"/><path class="cls-11" d="M27,49.74000108242035 a0.5,0.5 0 0 0 0,-1 a0.5,0.5 0 0 0 0,1 z" id="svg_510"/><path class="cls-11" d="M25.5,49.74000108242035 a0.5,0.5 0 0 0 0,-1 a0.5,0.5 0 0 0 0,1 z" id="svg_511"/><path class="cls-11" d="M24,49.74000108242035 a0.5,0.5 0 0 0 0,-1 a0.5,0.5 0 0 0 0,1 z" id="svg_512"/><path class="cls-11" d="M22.5,49.74000108242035 a0.5,0.5 0 0 0 0,-1 a0.5,0.5 0 0 0 0,1 z" id="svg_513"/><path class="cls-11" d="M21,49.74000108242035 a0.5,0.5 0 0 0 0,-1 a0.5,0.5 0 0 0 0,1 z" id="svg_514"/><path class="cls-11" d="M19.5,49.74000108242035 a0.5,0.5 0 0 0 0,-1 a0.5,0.5 0 0 0 0,1 z" id="svg_515"/><path class="cls-11" d="M18,49.74000108242035 a0.5,0.5 0 0 0 0,-1 a0.5,0.5 0 0 0 0,1 z" id="svg_516"/></g></g></svg>